M48
; DRILL file {KiCad (6.0.7-1)-1} date Thursday, October 20, 2022 at 12:36:19 PM
; FORMAT={-:-/ absolute / inch / decimal}
; #@! TF.CreationDate,2022-10-20T12:36:19-04:00
; #@! TF.GenerationSoftware,Kicad,Pcbnew,(6.0.7-1)-1
; #@! TF.FileFunction,Plated,1,2,PTH
FMAT,2
INCH
; #@! TA.AperFunction,Plated,PTH,ViaDrill
T1C0.0157
; #@! TA.AperFunction,Plated,PTH,ComponentDrill
T2C0.0295
; #@! TA.AperFunction,Plated,PTH,ComponentDrill
T3C0.0315
; #@! TA.AperFunction,Plated,PTH,ComponentDrill
T4C0.0512
; #@! TA.AperFunction,Plated,PTH,ComponentDrill
T5C0.0669
%
G90
G05
T1
X3.063Y-2.2087
X3.2269Y-3.718
X3.2835Y-2.1654
X3.2874Y-1.9882
X3.3071Y-2.2953
X3.3622Y-2.3425
X3.4331Y-4.0315
X3.4606Y-3.4882
X3.5118Y-3.2559
X3.6654Y-2.6811
X3.6772Y-3.0748
X3.6811Y-2.8937
X3.7559Y-2.6299
X3.8268Y-2.7638
X3.8595Y-2.0209
X3.9134Y-2.252
X3.9134Y-2.7323
X3.937Y-3.1535
X3.9921Y-3.5394
X4.0157Y-1.878
X4.0157Y-2.1417
X4.0256Y-2.4232
X4.0591Y-3.1535
X4.0709Y-3.6181
X4.2559Y-3.1063
X4.2638Y-2.4882
X4.2677Y-2.5748
X4.2953Y-3.3858
X4.5079Y-3.2953
X4.5512Y-2.7559
X4.5591Y-2.8071
X4.6299Y-3.2559
X4.6654Y-3.1929
X4.699Y-3.3565
X4.7323Y-3.1575
X5.5742Y-3.2565
X5.6299Y-3.0827
X5.6417Y-3.0079
X5.7008Y-2.9567
X5.7717Y-2.8268
X5.9813Y-2.8297
X5.9813Y-3.2274
X6.0578Y-2.5106
X6.0957Y-3.6681
X6.1791Y-3.1988
T2
X3.7598Y-3.8465
X3.7598Y-3.8965
X3.7598Y-3.9465
X4.3764Y-2.6862
X4.3764Y-2.7362
X4.3764Y-2.7862
T3
X2.6378Y-2.5945
X2.6378Y-2.6732
X2.6378Y-2.752
X2.6378Y-2.8307
X2.6378Y-3.0472
X2.6378Y-3.126
X2.6378Y-3.2047
X2.6378Y-3.3819
X2.6378Y-3.4606
X2.6378Y-3.5394
X2.6378Y-3.6181
X4.1571Y-3.8543
X4.2047Y-2.0197
X4.2835Y-2.0197
X4.3622Y-2.0197
X4.4409Y-2.0197
X4.4571Y-3.8543
X4.9606Y-2.0433
X5.0394Y-2.0433
X5.1181Y-2.0433
X5.1969Y-2.0433
X5.2756Y-2.0433
X5.3543Y-2.0433
T4
X6.6417Y-2.0378
X6.6417Y-2.5299
X6.6417Y-2.7386
X6.6417Y-3.2307
X6.6417Y-3.4433
X6.6417Y-3.9354
X6.8386Y-2.0378
X6.8386Y-2.5299
X6.8386Y-2.7386
X6.8386Y-3.2307
X6.8386Y-3.4433
X6.8386Y-3.9354
T5
X2.7598Y-2.0409
X2.7598Y-2.1969
X2.7835Y-3.8386
X2.7835Y-3.9945
T0
M30
