%TF.GenerationSoftware,KiCad,Pcbnew,(6.0.7-1)-1*%
%TF.CreationDate,2022-10-20T12:36:28-04:00*%
%TF.ProjectId,Kool Keg,4b6f6f6c-204b-4656-972e-6b696361645f,rev?*%
%TF.SameCoordinates,Original*%
%TF.FileFunction,Soldermask,Top*%
%TF.FilePolarity,Negative*%
%FSLAX46Y46*%
G04 Gerber Fmt 4.6, Leading zero omitted, Abs format (unit mm)*
G04 Created by KiCad (PCBNEW (6.0.7-1)-1) date 2022-10-20 12:36:28*
%MOMM*%
%LPD*%
G01*
G04 APERTURE LIST*
G04 Aperture macros list*
%AMRoundRect*
0 Rectangle with rounded corners*
0 $1 Rounding radius*
0 $2 $3 $4 $5 $6 $7 $8 $9 X,Y pos of 4 corners*
0 Add a 4 corners polygon primitive as box body*
4,1,4,$2,$3,$4,$5,$6,$7,$8,$9,$2,$3,0*
0 Add four circle primitives for the rounded corners*
1,1,$1+$1,$2,$3*
1,1,$1+$1,$4,$5*
1,1,$1+$1,$6,$7*
1,1,$1+$1,$8,$9*
0 Add four rect primitives between the rounded corners*
20,1,$1+$1,$2,$3,$4,$5,0*
20,1,$1+$1,$4,$5,$6,$7,0*
20,1,$1+$1,$6,$7,$8,$9,0*
20,1,$1+$1,$8,$9,$2,$3,0*%
G04 Aperture macros list end*
%ADD10C,3.000000*%
%ADD11RoundRect,0.250000X-0.350000X-0.450000X0.350000X-0.450000X0.350000X0.450000X-0.350000X0.450000X0*%
%ADD12RoundRect,0.250000X0.475000X-0.337500X0.475000X0.337500X-0.475000X0.337500X-0.475000X-0.337500X0*%
%ADD13RoundRect,0.150000X-0.825000X-0.150000X0.825000X-0.150000X0.825000X0.150000X-0.825000X0.150000X0*%
%ADD14C,1.350000*%
%ADD15O,1.350000X1.350000*%
%ADD16RoundRect,0.250000X-0.337500X-0.475000X0.337500X-0.475000X0.337500X0.475000X-0.337500X0.475000X0*%
%ADD17RoundRect,0.250000X-0.450000X0.350000X-0.450000X-0.350000X0.450000X-0.350000X0.450000X0.350000X0*%
%ADD18O,4.100000X3.160000*%
%ADD19RoundRect,0.250000X-0.475000X0.337500X-0.475000X-0.337500X0.475000X-0.337500X0.475000X0.337500X0*%
%ADD20RoundRect,0.250000X-0.325000X-0.450000X0.325000X-0.450000X0.325000X0.450000X-0.325000X0.450000X0*%
%ADD21C,1.600000*%
%ADD22O,1.600000X1.600000*%
%ADD23RoundRect,0.250000X1.050000X0.550000X-1.050000X0.550000X-1.050000X-0.550000X1.050000X-0.550000X0*%
%ADD24O,1.850000X3.048000*%
%ADD25RoundRect,0.250000X0.337500X0.475000X-0.337500X0.475000X-0.337500X-0.475000X0.337500X-0.475000X0*%
%ADD26R,1.500000X1.500000*%
%ADD27R,1.500000X2.000000*%
%ADD28R,3.800000X2.000000*%
%ADD29RoundRect,0.250000X0.350000X0.450000X-0.350000X0.450000X-0.350000X-0.450000X0.350000X-0.450000X0*%
%ADD30RoundRect,0.100000X-0.100000X0.712500X-0.100000X-0.712500X0.100000X-0.712500X0.100000X0.712500X0*%
%ADD31RoundRect,0.237500X0.300000X0.237500X-0.300000X0.237500X-0.300000X-0.237500X0.300000X-0.237500X0*%
%ADD32RoundRect,0.100000X-0.712500X-0.100000X0.712500X-0.100000X0.712500X0.100000X-0.712500X0.100000X0*%
%ADD33R,0.700000X0.340000*%
%ADD34R,5.100000X2.350000*%
%ADD35RoundRect,0.250000X0.450000X-0.350000X0.450000X0.350000X-0.450000X0.350000X-0.450000X-0.350000X0*%
%ADD36RoundRect,0.250000X-0.550000X1.500000X-0.550000X-1.500000X0.550000X-1.500000X0.550000X1.500000X0*%
%ADD37R,2.000000X0.900000*%
%ADD38R,0.900000X2.000000*%
%ADD39R,5.000000X5.000000*%
%ADD40RoundRect,0.237500X-0.300000X-0.237500X0.300000X-0.237500X0.300000X0.237500X-0.300000X0.237500X0*%
%ADD41R,1.500000X1.050000*%
%ADD42O,1.500000X1.050000*%
%ADD43RoundRect,0.150000X-0.150000X0.850000X-0.150000X-0.850000X0.150000X-0.850000X0.150000X0.850000X0*%
G04 APERTURE END LIST*
D10*
%TO.C,REF\u002A\u002A*%
X99600000Y-107400000D03*
%TD*%
D11*
%TO.C,R8*%
X160600000Y-69600000D03*
X162600000Y-69600000D03*
%TD*%
D12*
%TO.C,C1*%
X86100000Y-56037500D03*
X86100000Y-53962500D03*
%TD*%
D13*
%TO.C,U5*%
X84225000Y-95595000D03*
X84225000Y-96865000D03*
X84225000Y-98135000D03*
X84225000Y-99405000D03*
X89175000Y-99405000D03*
X89175000Y-98135000D03*
X89175000Y-96865000D03*
X89175000Y-95595000D03*
%TD*%
D14*
%TO.C,J3*%
X67000000Y-85900000D03*
D15*
X67000000Y-87900000D03*
X67000000Y-89900000D03*
X67000000Y-91900000D03*
%TD*%
D16*
%TO.C,C3*%
X88962500Y-75700000D03*
X91037500Y-75700000D03*
%TD*%
D17*
%TO.C,R12*%
X110800000Y-53900000D03*
X110800000Y-55900000D03*
%TD*%
D12*
%TO.C,C22*%
X148300000Y-90937500D03*
X148300000Y-88862500D03*
%TD*%
D18*
%TO.C,J1*%
X70100000Y-55800000D03*
X70100000Y-51840000D03*
%TD*%
D19*
%TO.C,C9*%
X94500000Y-61362500D03*
X94500000Y-63437500D03*
%TD*%
D14*
%TO.C,J2*%
X106800000Y-51300000D03*
D15*
X108800000Y-51300000D03*
X110800000Y-51300000D03*
X112800000Y-51300000D03*
%TD*%
D11*
%TO.C,R17*%
X110600000Y-82600000D03*
X112600000Y-82600000D03*
%TD*%
D19*
%TO.C,C10*%
X99100000Y-61362500D03*
X99100000Y-63437500D03*
%TD*%
D20*
%TO.C,D1*%
X160475000Y-75800000D03*
X162525000Y-75800000D03*
%TD*%
D11*
%TO.C,R4*%
X88700000Y-64200000D03*
X90700000Y-64200000D03*
%TD*%
D10*
%TO.C,REF\u002A\u002A*%
X170900000Y-44900000D03*
%TD*%
D21*
%TO.C,D4*%
X113210000Y-97900000D03*
D22*
X105590000Y-97900000D03*
%TD*%
D11*
%TO.C,R1*%
X87000000Y-80400000D03*
X89000000Y-80400000D03*
%TD*%
D16*
%TO.C,C15*%
X108862500Y-75800000D03*
X110937500Y-75800000D03*
%TD*%
D11*
%TO.C,R2*%
X88900000Y-70900000D03*
X90900000Y-70900000D03*
%TD*%
D23*
%TO.C,C2*%
X74700000Y-66400000D03*
X71100000Y-66400000D03*
%TD*%
D11*
%TO.C,R13*%
X104300000Y-59500000D03*
X106300000Y-59500000D03*
%TD*%
D20*
%TO.C,D2*%
X160775000Y-93700000D03*
X162825000Y-93700000D03*
%TD*%
D24*
%TO.C,SW1*%
X173700000Y-64260000D03*
X173700000Y-51760000D03*
X168700000Y-64260000D03*
X168700000Y-51760000D03*
%TD*%
D20*
%TO.C,D3*%
X160575000Y-58300000D03*
X162625000Y-58300000D03*
%TD*%
D14*
%TO.C,J7*%
X67000000Y-71900000D03*
D15*
X67000000Y-69900000D03*
X67000000Y-67900000D03*
X67000000Y-65900000D03*
%TD*%
D25*
%TO.C,C17*%
X103037500Y-51300000D03*
X100962500Y-51300000D03*
%TD*%
D12*
%TO.C,C23*%
X153000000Y-90937500D03*
X153000000Y-88862500D03*
%TD*%
D19*
%TO.C,C18*%
X102000000Y-98962500D03*
X102000000Y-101037500D03*
%TD*%
%TO.C,C12*%
X157000000Y-75662500D03*
X157000000Y-77737500D03*
%TD*%
D26*
%TO.C,+5V*%
X74200000Y-77300000D03*
%TD*%
D27*
%TO.C,U1*%
X83800000Y-70950000D03*
D28*
X81500000Y-77250000D03*
D27*
X81500000Y-70950000D03*
X79200000Y-70950000D03*
%TD*%
D11*
%TO.C,R20*%
X151700000Y-84500000D03*
X153700000Y-84500000D03*
%TD*%
%TO.C,R7*%
X160900000Y-99900000D03*
X162900000Y-99900000D03*
%TD*%
D29*
%TO.C,R10*%
X162600000Y-51800000D03*
X160600000Y-51800000D03*
%TD*%
D25*
%TO.C,C16*%
X103237500Y-66400000D03*
X101162500Y-66400000D03*
%TD*%
D15*
%TO.C,J5*%
X136000000Y-51900000D03*
X134000000Y-51900000D03*
X132000000Y-51900000D03*
X130000000Y-51900000D03*
X128000000Y-51900000D03*
X126000000Y-51900000D03*
%TD*%
D12*
%TO.C,C4*%
X90700000Y-56037500D03*
X90700000Y-53962500D03*
%TD*%
D16*
%TO.C,C19*%
X82262500Y-103700000D03*
X84337500Y-103700000D03*
%TD*%
D29*
%TO.C,R3*%
X90700000Y-60600000D03*
X88700000Y-60600000D03*
%TD*%
D30*
%TO.C,U3*%
X152575000Y-74687500D03*
X151925000Y-74687500D03*
X151275000Y-74687500D03*
X150625000Y-74687500D03*
X150625000Y-78912500D03*
X151275000Y-78912500D03*
X151925000Y-78912500D03*
X152575000Y-78912500D03*
%TD*%
D31*
%TO.C,C6*%
X81262500Y-50500000D03*
X79537500Y-50500000D03*
%TD*%
D32*
%TO.C,U6*%
X95787500Y-84625000D03*
X95787500Y-85275000D03*
X95787500Y-85925000D03*
X95787500Y-86575000D03*
X100012500Y-86575000D03*
X100012500Y-85925000D03*
X100012500Y-85275000D03*
X100012500Y-84625000D03*
%TD*%
D24*
%TO.C,SW3*%
X173700000Y-99960000D03*
X173700000Y-87460000D03*
X168700000Y-99960000D03*
X168700000Y-87460000D03*
%TD*%
%TO.C,SW2*%
X173700000Y-82060000D03*
X173700000Y-69560000D03*
X168700000Y-69560000D03*
X168700000Y-82060000D03*
%TD*%
D33*
%TO.C,U2*%
X81150000Y-55500000D03*
X81150000Y-55000000D03*
X81150000Y-54500000D03*
X79650000Y-54500000D03*
X79650000Y-55000000D03*
X79650000Y-55500000D03*
%TD*%
D29*
%TO.C,R9*%
X162900000Y-87500000D03*
X160900000Y-87500000D03*
%TD*%
D12*
%TO.C,C5*%
X95400000Y-56037500D03*
X95400000Y-53962500D03*
%TD*%
D34*
%TO.C,L1*%
X81500000Y-61125000D03*
X81500000Y-65275000D03*
%TD*%
D35*
%TO.C,R19*%
X148300000Y-86400000D03*
X148300000Y-84400000D03*
%TD*%
D36*
%TO.C,C7*%
X81400000Y-81700000D03*
X81400000Y-87100000D03*
%TD*%
D11*
%TO.C,R6*%
X160500000Y-82000000D03*
X162500000Y-82000000D03*
%TD*%
D16*
%TO.C,C20*%
X81962500Y-92300000D03*
X84037500Y-92300000D03*
%TD*%
D37*
%TO.C,U7*%
X139700000Y-85255000D03*
X139700000Y-83985000D03*
X139700000Y-82715000D03*
X139700000Y-81445000D03*
X139700000Y-80175000D03*
X139700000Y-78905000D03*
X139700000Y-77635000D03*
X139700000Y-76365000D03*
X139700000Y-75095000D03*
X139700000Y-73825000D03*
X139700000Y-72555000D03*
X139700000Y-71285000D03*
X139700000Y-70015000D03*
X139700000Y-68745000D03*
D38*
X136915000Y-67745000D03*
X135645000Y-67745000D03*
X134375000Y-67745000D03*
X133105000Y-67745000D03*
X131835000Y-67745000D03*
X130565000Y-67745000D03*
X129295000Y-67745000D03*
X128025000Y-67745000D03*
X126755000Y-67745000D03*
X125485000Y-67745000D03*
D37*
X122700000Y-68745000D03*
X122700000Y-70015000D03*
X122700000Y-71285000D03*
X122700000Y-72555000D03*
X122700000Y-73825000D03*
X122700000Y-75095000D03*
X122700000Y-76365000D03*
X122700000Y-77635000D03*
X122700000Y-78905000D03*
X122700000Y-80175000D03*
X122700000Y-81445000D03*
X122700000Y-82715000D03*
X122700000Y-83985000D03*
X122700000Y-85255000D03*
D39*
X132200000Y-77755000D03*
%TD*%
D26*
%TO.C,+3.3*%
X70100000Y-44700000D03*
%TD*%
D29*
%TO.C,R18*%
X145000000Y-79900000D03*
X143000000Y-79900000D03*
%TD*%
D25*
%TO.C,C14*%
X112937500Y-63200000D03*
X110862500Y-63200000D03*
%TD*%
D10*
%TO.C,REF\u002A\u002A*%
X170800000Y-107600000D03*
%TD*%
D19*
%TO.C,C11*%
X157200000Y-58362500D03*
X157200000Y-60437500D03*
%TD*%
D14*
%TO.C,J4*%
X67000000Y-77400000D03*
D15*
X67000000Y-79400000D03*
X67000000Y-81400000D03*
%TD*%
D35*
%TO.C,R21*%
X150800000Y-69700000D03*
X150800000Y-67700000D03*
%TD*%
D19*
%TO.C,C21*%
X143700000Y-82862500D03*
X143700000Y-84937500D03*
%TD*%
D17*
%TO.C,R11*%
X112900000Y-57900000D03*
X112900000Y-59900000D03*
%TD*%
D40*
%TO.C,C8*%
X86337500Y-67400000D03*
X88062500Y-67400000D03*
%TD*%
D19*
%TO.C,C13*%
X157400000Y-93662500D03*
X157400000Y-95737500D03*
%TD*%
D18*
%TO.C,J6*%
X70700000Y-97500000D03*
X70700000Y-101460000D03*
%TD*%
D29*
%TO.C,R16*%
X91800000Y-103700000D03*
X89800000Y-103700000D03*
%TD*%
D17*
%TO.C,R15*%
X102000000Y-94900000D03*
X102000000Y-96900000D03*
%TD*%
D26*
%TO.C,GND*%
X77000000Y-44700000D03*
%TD*%
D41*
%TO.C,Q1*%
X111160000Y-70770000D03*
D42*
X111160000Y-69500000D03*
X111160000Y-68230000D03*
%TD*%
D41*
%TO.C,Q2*%
X95500000Y-97700000D03*
D42*
X95500000Y-98970000D03*
X95500000Y-100240000D03*
%TD*%
D43*
%TO.C,U4*%
X106045000Y-73200000D03*
X104775000Y-73200000D03*
X103505000Y-73200000D03*
X102235000Y-73200000D03*
X100965000Y-73200000D03*
X99695000Y-73200000D03*
X98425000Y-73200000D03*
X97155000Y-73200000D03*
X97155000Y-78200000D03*
X98425000Y-78200000D03*
X99695000Y-78200000D03*
X100965000Y-78200000D03*
X102235000Y-78200000D03*
X103505000Y-78200000D03*
X104775000Y-78200000D03*
X106045000Y-78200000D03*
%TD*%
D10*
%TO.C,REF\u002A\u002A*%
X90200000Y-45000000D03*
%TD*%
D11*
%TO.C,R5*%
X160600000Y-64300000D03*
X162600000Y-64300000D03*
%TD*%
D17*
%TO.C,R14*%
X106200000Y-53900000D03*
X106200000Y-55900000D03*
%TD*%
M02*
