%TF.GenerationSoftware,KiCad,Pcbnew,(6.0.7-1)-1*%
%TF.CreationDate,2022-11-01T14:00:09-04:00*%
%TF.ProjectId,Kool Keg,4b6f6f6c-204b-4656-972e-6b696361645f,rev?*%
%TF.SameCoordinates,Original*%
%TF.FileFunction,Legend,Top*%
%TF.FilePolarity,Positive*%
%FSLAX46Y46*%
G04 Gerber Fmt 4.6, Leading zero omitted, Abs format (unit mm)*
G04 Created by KiCad (PCBNEW (6.0.7-1)-1) date 2022-11-01 14:00:09*
%MOMM*%
%LPD*%
G01*
G04 APERTURE LIST*
%ADD10C,0.150000*%
%ADD11C,0.120000*%
G04 APERTURE END LIST*
D10*
X122314285Y-103994761D02*
X122457142Y-104042380D01*
X122695238Y-104042380D01*
X122790476Y-103994761D01*
X122838095Y-103947142D01*
X122885714Y-103851904D01*
X122885714Y-103756666D01*
X122838095Y-103661428D01*
X122790476Y-103613809D01*
X122695238Y-103566190D01*
X122504761Y-103518571D01*
X122409523Y-103470952D01*
X122361904Y-103423333D01*
X122314285Y-103328095D01*
X122314285Y-103232857D01*
X122361904Y-103137619D01*
X122409523Y-103090000D01*
X122504761Y-103042380D01*
X122742857Y-103042380D01*
X122885714Y-103090000D01*
X123314285Y-104042380D02*
X123314285Y-103375714D01*
X123314285Y-103470952D02*
X123361904Y-103423333D01*
X123457142Y-103375714D01*
X123600000Y-103375714D01*
X123695238Y-103423333D01*
X123742857Y-103518571D01*
X123742857Y-104042380D01*
X123742857Y-103518571D02*
X123790476Y-103423333D01*
X123885714Y-103375714D01*
X124028571Y-103375714D01*
X124123809Y-103423333D01*
X124171428Y-103518571D01*
X124171428Y-104042380D01*
X125076190Y-104042380D02*
X125076190Y-103518571D01*
X125028571Y-103423333D01*
X124933333Y-103375714D01*
X124742857Y-103375714D01*
X124647619Y-103423333D01*
X125076190Y-103994761D02*
X124980952Y-104042380D01*
X124742857Y-104042380D01*
X124647619Y-103994761D01*
X124600000Y-103899523D01*
X124600000Y-103804285D01*
X124647619Y-103709047D01*
X124742857Y-103661428D01*
X124980952Y-103661428D01*
X125076190Y-103613809D01*
X125552380Y-104042380D02*
X125552380Y-103375714D01*
X125552380Y-103566190D02*
X125600000Y-103470952D01*
X125647619Y-103423333D01*
X125742857Y-103375714D01*
X125838095Y-103375714D01*
X126028571Y-103375714D02*
X126409523Y-103375714D01*
X126171428Y-103042380D02*
X126171428Y-103899523D01*
X126219047Y-103994761D01*
X126314285Y-104042380D01*
X126409523Y-104042380D01*
X127838095Y-103518571D02*
X127980952Y-103566190D01*
X128028571Y-103613809D01*
X128076190Y-103709047D01*
X128076190Y-103851904D01*
X128028571Y-103947142D01*
X127980952Y-103994761D01*
X127885714Y-104042380D01*
X127504761Y-104042380D01*
X127504761Y-103042380D01*
X127838095Y-103042380D01*
X127933333Y-103090000D01*
X127980952Y-103137619D01*
X128028571Y-103232857D01*
X128028571Y-103328095D01*
X127980952Y-103423333D01*
X127933333Y-103470952D01*
X127838095Y-103518571D01*
X127504761Y-103518571D01*
X128885714Y-103994761D02*
X128790476Y-104042380D01*
X128600000Y-104042380D01*
X128504761Y-103994761D01*
X128457142Y-103899523D01*
X128457142Y-103518571D01*
X128504761Y-103423333D01*
X128600000Y-103375714D01*
X128790476Y-103375714D01*
X128885714Y-103423333D01*
X128933333Y-103518571D01*
X128933333Y-103613809D01*
X128457142Y-103709047D01*
X129266666Y-103375714D02*
X129504761Y-104042380D01*
X129742857Y-103375714D01*
X130504761Y-103994761D02*
X130409523Y-104042380D01*
X130219047Y-104042380D01*
X130123809Y-103994761D01*
X130076190Y-103899523D01*
X130076190Y-103518571D01*
X130123809Y-103423333D01*
X130219047Y-103375714D01*
X130409523Y-103375714D01*
X130504761Y-103423333D01*
X130552380Y-103518571D01*
X130552380Y-103613809D01*
X130076190Y-103709047D01*
X130980952Y-104042380D02*
X130980952Y-103375714D01*
X130980952Y-103566190D02*
X131028571Y-103470952D01*
X131076190Y-103423333D01*
X131171428Y-103375714D01*
X131266666Y-103375714D01*
X132028571Y-104042380D02*
X132028571Y-103518571D01*
X131980952Y-103423333D01*
X131885714Y-103375714D01*
X131695238Y-103375714D01*
X131600000Y-103423333D01*
X132028571Y-103994761D02*
X131933333Y-104042380D01*
X131695238Y-104042380D01*
X131600000Y-103994761D01*
X131552380Y-103899523D01*
X131552380Y-103804285D01*
X131600000Y-103709047D01*
X131695238Y-103661428D01*
X131933333Y-103661428D01*
X132028571Y-103613809D01*
X132933333Y-103375714D02*
X132933333Y-104185238D01*
X132885714Y-104280476D01*
X132838095Y-104328095D01*
X132742857Y-104375714D01*
X132600000Y-104375714D01*
X132504761Y-104328095D01*
X132933333Y-103994761D02*
X132838095Y-104042380D01*
X132647619Y-104042380D01*
X132552380Y-103994761D01*
X132504761Y-103947142D01*
X132457142Y-103851904D01*
X132457142Y-103566190D01*
X132504761Y-103470952D01*
X132552380Y-103423333D01*
X132647619Y-103375714D01*
X132838095Y-103375714D01*
X132933333Y-103423333D01*
X133790476Y-103994761D02*
X133695238Y-104042380D01*
X133504761Y-104042380D01*
X133409523Y-103994761D01*
X133361904Y-103899523D01*
X133361904Y-103518571D01*
X133409523Y-103423333D01*
X133504761Y-103375714D01*
X133695238Y-103375714D01*
X133790476Y-103423333D01*
X133838095Y-103518571D01*
X133838095Y-103613809D01*
X133361904Y-103709047D01*
X134980952Y-103994761D02*
X135123809Y-104042380D01*
X135361904Y-104042380D01*
X135457142Y-103994761D01*
X135504761Y-103947142D01*
X135552380Y-103851904D01*
X135552380Y-103756666D01*
X135504761Y-103661428D01*
X135457142Y-103613809D01*
X135361904Y-103566190D01*
X135171428Y-103518571D01*
X135076190Y-103470952D01*
X135028571Y-103423333D01*
X134980952Y-103328095D01*
X134980952Y-103232857D01*
X135028571Y-103137619D01*
X135076190Y-103090000D01*
X135171428Y-103042380D01*
X135409523Y-103042380D01*
X135552380Y-103090000D01*
X135885714Y-103375714D02*
X136123809Y-104042380D01*
X136361904Y-103375714D02*
X136123809Y-104042380D01*
X136028571Y-104280476D01*
X135980952Y-104328095D01*
X135885714Y-104375714D01*
X136695238Y-103994761D02*
X136790476Y-104042380D01*
X136980952Y-104042380D01*
X137076190Y-103994761D01*
X137123809Y-103899523D01*
X137123809Y-103851904D01*
X137076190Y-103756666D01*
X136980952Y-103709047D01*
X136838095Y-103709047D01*
X136742857Y-103661428D01*
X136695238Y-103566190D01*
X136695238Y-103518571D01*
X136742857Y-103423333D01*
X136838095Y-103375714D01*
X136980952Y-103375714D01*
X137076190Y-103423333D01*
X137409523Y-103375714D02*
X137790476Y-103375714D01*
X137552380Y-103042380D02*
X137552380Y-103899523D01*
X137600000Y-103994761D01*
X137695238Y-104042380D01*
X137790476Y-104042380D01*
X138504761Y-103994761D02*
X138409523Y-104042380D01*
X138219047Y-104042380D01*
X138123809Y-103994761D01*
X138076190Y-103899523D01*
X138076190Y-103518571D01*
X138123809Y-103423333D01*
X138219047Y-103375714D01*
X138409523Y-103375714D01*
X138504761Y-103423333D01*
X138552380Y-103518571D01*
X138552380Y-103613809D01*
X138076190Y-103709047D01*
X138980952Y-104042380D02*
X138980952Y-103375714D01*
X138980952Y-103470952D02*
X139028571Y-103423333D01*
X139123809Y-103375714D01*
X139266666Y-103375714D01*
X139361904Y-103423333D01*
X139409523Y-103518571D01*
X139409523Y-104042380D01*
X139409523Y-103518571D02*
X139457142Y-103423333D01*
X139552380Y-103375714D01*
X139695238Y-103375714D01*
X139790476Y-103423333D01*
X139838095Y-103518571D01*
X139838095Y-104042380D01*
X123123809Y-104652380D02*
X123695238Y-104652380D01*
X123409523Y-105652380D02*
X123409523Y-104652380D01*
X124409523Y-105604761D02*
X124314285Y-105652380D01*
X124123809Y-105652380D01*
X124028571Y-105604761D01*
X123980952Y-105509523D01*
X123980952Y-105128571D01*
X124028571Y-105033333D01*
X124123809Y-104985714D01*
X124314285Y-104985714D01*
X124409523Y-105033333D01*
X124457142Y-105128571D01*
X124457142Y-105223809D01*
X123980952Y-105319047D01*
X125314285Y-105652380D02*
X125314285Y-105128571D01*
X125266666Y-105033333D01*
X125171428Y-104985714D01*
X124980952Y-104985714D01*
X124885714Y-105033333D01*
X125314285Y-105604761D02*
X125219047Y-105652380D01*
X124980952Y-105652380D01*
X124885714Y-105604761D01*
X124838095Y-105509523D01*
X124838095Y-105414285D01*
X124885714Y-105319047D01*
X124980952Y-105271428D01*
X125219047Y-105271428D01*
X125314285Y-105223809D01*
X125790476Y-105652380D02*
X125790476Y-104985714D01*
X125790476Y-105080952D02*
X125838095Y-105033333D01*
X125933333Y-104985714D01*
X126076190Y-104985714D01*
X126171428Y-105033333D01*
X126219047Y-105128571D01*
X126219047Y-105652380D01*
X126219047Y-105128571D02*
X126266666Y-105033333D01*
X126361904Y-104985714D01*
X126504761Y-104985714D01*
X126600000Y-105033333D01*
X126647619Y-105128571D01*
X126647619Y-105652380D01*
X128361904Y-104652380D02*
X127885714Y-104652380D01*
X127838095Y-105128571D01*
X127885714Y-105080952D01*
X127980952Y-105033333D01*
X128219047Y-105033333D01*
X128314285Y-105080952D01*
X128361904Y-105128571D01*
X128409523Y-105223809D01*
X128409523Y-105461904D01*
X128361904Y-105557142D01*
X128314285Y-105604761D01*
X128219047Y-105652380D01*
X127980952Y-105652380D01*
X127885714Y-105604761D01*
X127838095Y-105557142D01*
X129361904Y-105652380D02*
X128790476Y-105652380D01*
X129076190Y-105652380D02*
X129076190Y-104652380D01*
X128980952Y-104795238D01*
X128885714Y-104890476D01*
X128790476Y-104938095D01*
X130552380Y-105271428D02*
X131314285Y-105271428D01*
X132552380Y-105652380D02*
X132552380Y-104652380D01*
X133123809Y-105652380D02*
X132695238Y-105080952D01*
X133123809Y-104652380D02*
X132552380Y-105223809D01*
X133695238Y-105652380D02*
X133600000Y-105604761D01*
X133552380Y-105557142D01*
X133504761Y-105461904D01*
X133504761Y-105176190D01*
X133552380Y-105080952D01*
X133600000Y-105033333D01*
X133695238Y-104985714D01*
X133838095Y-104985714D01*
X133933333Y-105033333D01*
X133980952Y-105080952D01*
X134028571Y-105176190D01*
X134028571Y-105461904D01*
X133980952Y-105557142D01*
X133933333Y-105604761D01*
X133838095Y-105652380D01*
X133695238Y-105652380D01*
X134600000Y-105652380D02*
X134504761Y-105604761D01*
X134457142Y-105557142D01*
X134409523Y-105461904D01*
X134409523Y-105176190D01*
X134457142Y-105080952D01*
X134504761Y-105033333D01*
X134600000Y-104985714D01*
X134742857Y-104985714D01*
X134838095Y-105033333D01*
X134885714Y-105080952D01*
X134933333Y-105176190D01*
X134933333Y-105461904D01*
X134885714Y-105557142D01*
X134838095Y-105604761D01*
X134742857Y-105652380D01*
X134600000Y-105652380D01*
X135504761Y-105652380D02*
X135409523Y-105604761D01*
X135361904Y-105509523D01*
X135361904Y-104652380D01*
X136647619Y-105652380D02*
X136647619Y-104652380D01*
X137219047Y-105652380D02*
X136790476Y-105080952D01*
X137219047Y-104652380D02*
X136647619Y-105223809D01*
X138028571Y-105604761D02*
X137933333Y-105652380D01*
X137742857Y-105652380D01*
X137647619Y-105604761D01*
X137600000Y-105509523D01*
X137600000Y-105128571D01*
X137647619Y-105033333D01*
X137742857Y-104985714D01*
X137933333Y-104985714D01*
X138028571Y-105033333D01*
X138076190Y-105128571D01*
X138076190Y-105223809D01*
X137600000Y-105319047D01*
X138933333Y-104985714D02*
X138933333Y-105795238D01*
X138885714Y-105890476D01*
X138838095Y-105938095D01*
X138742857Y-105985714D01*
X138600000Y-105985714D01*
X138504761Y-105938095D01*
X138933333Y-105604761D02*
X138838095Y-105652380D01*
X138647619Y-105652380D01*
X138552380Y-105604761D01*
X138504761Y-105557142D01*
X138457142Y-105461904D01*
X138457142Y-105176190D01*
X138504761Y-105080952D01*
X138552380Y-105033333D01*
X138647619Y-104985714D01*
X138838095Y-104985714D01*
X138933333Y-105033333D01*
X111290476Y-107167142D02*
X111242857Y-107214761D01*
X111099999Y-107262380D01*
X111004761Y-107262380D01*
X110861904Y-107214761D01*
X110766666Y-107119523D01*
X110719047Y-107024285D01*
X110671428Y-106833809D01*
X110671428Y-106690952D01*
X110719047Y-106500476D01*
X110766666Y-106405238D01*
X110861904Y-106310000D01*
X111004761Y-106262380D01*
X111099999Y-106262380D01*
X111242857Y-106310000D01*
X111290476Y-106357619D01*
X111861904Y-107262380D02*
X111766666Y-107214761D01*
X111719047Y-107167142D01*
X111671428Y-107071904D01*
X111671428Y-106786190D01*
X111719047Y-106690952D01*
X111766666Y-106643333D01*
X111861904Y-106595714D01*
X112004761Y-106595714D01*
X112099999Y-106643333D01*
X112147619Y-106690952D01*
X112195238Y-106786190D01*
X112195238Y-107071904D01*
X112147619Y-107167142D01*
X112099999Y-107214761D01*
X112004761Y-107262380D01*
X111861904Y-107262380D01*
X112766666Y-107262380D02*
X112671428Y-107214761D01*
X112623809Y-107119523D01*
X112623809Y-106262380D01*
X113528571Y-107214761D02*
X113433333Y-107262380D01*
X113242857Y-107262380D01*
X113147619Y-107214761D01*
X113099999Y-107119523D01*
X113099999Y-106738571D01*
X113147619Y-106643333D01*
X113242857Y-106595714D01*
X113433333Y-106595714D01*
X113528571Y-106643333D01*
X113576190Y-106738571D01*
X113576190Y-106833809D01*
X113099999Y-106929047D01*
X114766666Y-107262380D02*
X114766666Y-106262380D01*
X115338095Y-107262380D02*
X114909523Y-106690952D01*
X115338095Y-106262380D02*
X114766666Y-106833809D01*
X115766666Y-106595714D02*
X115766666Y-107262380D01*
X115766666Y-106690952D02*
X115814285Y-106643333D01*
X115909523Y-106595714D01*
X116052380Y-106595714D01*
X116147619Y-106643333D01*
X116195238Y-106738571D01*
X116195238Y-107262380D01*
X116671428Y-107262380D02*
X116671428Y-106595714D01*
X116671428Y-106262380D02*
X116623809Y-106310000D01*
X116671428Y-106357619D01*
X116719047Y-106310000D01*
X116671428Y-106262380D01*
X116671428Y-106357619D01*
X117004761Y-106595714D02*
X117385714Y-106595714D01*
X117147619Y-107262380D02*
X117147619Y-106405238D01*
X117195238Y-106310000D01*
X117290476Y-106262380D01*
X117385714Y-106262380D01*
X117576190Y-106595714D02*
X117957142Y-106595714D01*
X117719047Y-107262380D02*
X117719047Y-106405238D01*
X117766666Y-106310000D01*
X117861904Y-106262380D01*
X117957142Y-106262380D01*
X118671428Y-107214761D02*
X118576190Y-107262380D01*
X118385714Y-107262380D01*
X118290476Y-107214761D01*
X118242857Y-107119523D01*
X118242857Y-106738571D01*
X118290476Y-106643333D01*
X118385714Y-106595714D01*
X118576190Y-106595714D01*
X118671428Y-106643333D01*
X118719047Y-106738571D01*
X118719047Y-106833809D01*
X118242857Y-106929047D01*
X119147619Y-106595714D02*
X119147619Y-107262380D01*
X119147619Y-106690952D02*
X119195238Y-106643333D01*
X119290476Y-106595714D01*
X119433333Y-106595714D01*
X119528571Y-106643333D01*
X119576190Y-106738571D01*
X119576190Y-107262380D01*
X120099999Y-107214761D02*
X120099999Y-107262380D01*
X120052380Y-107357619D01*
X120004761Y-107405238D01*
X121290476Y-107262380D02*
X121290476Y-106262380D01*
X121528571Y-106262380D01*
X121671428Y-106310000D01*
X121766666Y-106405238D01*
X121814285Y-106500476D01*
X121861904Y-106690952D01*
X121861904Y-106833809D01*
X121814285Y-107024285D01*
X121766666Y-107119523D01*
X121671428Y-107214761D01*
X121528571Y-107262380D01*
X121290476Y-107262380D01*
X122195238Y-106595714D02*
X122433333Y-107262380D01*
X122671428Y-106595714D02*
X122433333Y-107262380D01*
X122338095Y-107500476D01*
X122290476Y-107548095D01*
X122195238Y-107595714D01*
X123195238Y-107262380D02*
X123099999Y-107214761D01*
X123052380Y-107119523D01*
X123052380Y-106262380D01*
X124004761Y-107262380D02*
X124004761Y-106738571D01*
X123957142Y-106643333D01*
X123861904Y-106595714D01*
X123671428Y-106595714D01*
X123576190Y-106643333D01*
X124004761Y-107214761D02*
X123909523Y-107262380D01*
X123671428Y-107262380D01*
X123576190Y-107214761D01*
X123528571Y-107119523D01*
X123528571Y-107024285D01*
X123576190Y-106929047D01*
X123671428Y-106881428D01*
X123909523Y-106881428D01*
X124004761Y-106833809D01*
X124480952Y-106595714D02*
X124480952Y-107262380D01*
X124480952Y-106690952D02*
X124528571Y-106643333D01*
X124623809Y-106595714D01*
X124766666Y-106595714D01*
X124861904Y-106643333D01*
X124909523Y-106738571D01*
X124909523Y-107262380D01*
X126147619Y-107262380D02*
X126147619Y-106262380D01*
X126147619Y-106738571D02*
X126719047Y-106738571D01*
X126719047Y-107262380D02*
X126719047Y-106262380D01*
X127623809Y-106595714D02*
X127623809Y-107262380D01*
X127195238Y-106595714D02*
X127195238Y-107119523D01*
X127242857Y-107214761D01*
X127338095Y-107262380D01*
X127480952Y-107262380D01*
X127576190Y-107214761D01*
X127623809Y-107167142D01*
X128099999Y-106595714D02*
X128099999Y-107262380D01*
X128099999Y-106690952D02*
X128147619Y-106643333D01*
X128242857Y-106595714D01*
X128385714Y-106595714D01*
X128480952Y-106643333D01*
X128528571Y-106738571D01*
X128528571Y-107262380D01*
X128861904Y-106595714D02*
X129242857Y-106595714D01*
X129004761Y-106262380D02*
X129004761Y-107119523D01*
X129052380Y-107214761D01*
X129147619Y-107262380D01*
X129242857Y-107262380D01*
X129719047Y-107262380D02*
X129623809Y-107214761D01*
X129576190Y-107167142D01*
X129528571Y-107071904D01*
X129528571Y-106786190D01*
X129576190Y-106690952D01*
X129623809Y-106643333D01*
X129719047Y-106595714D01*
X129861904Y-106595714D01*
X129957142Y-106643333D01*
X130004761Y-106690952D01*
X130052380Y-106786190D01*
X130052380Y-107071904D01*
X130004761Y-107167142D01*
X129957142Y-107214761D01*
X129861904Y-107262380D01*
X129719047Y-107262380D01*
X130623809Y-107262380D02*
X130528571Y-107214761D01*
X130480952Y-107167142D01*
X130433333Y-107071904D01*
X130433333Y-106786190D01*
X130480952Y-106690952D01*
X130528571Y-106643333D01*
X130623809Y-106595714D01*
X130766666Y-106595714D01*
X130861904Y-106643333D01*
X130909523Y-106690952D01*
X130957142Y-106786190D01*
X130957142Y-107071904D01*
X130909523Y-107167142D01*
X130861904Y-107214761D01*
X130766666Y-107262380D01*
X130623809Y-107262380D01*
X131385714Y-106595714D02*
X131385714Y-107262380D01*
X131385714Y-106690952D02*
X131433333Y-106643333D01*
X131528571Y-106595714D01*
X131671428Y-106595714D01*
X131766666Y-106643333D01*
X131814285Y-106738571D01*
X131814285Y-107262380D01*
X132338095Y-107214761D02*
X132338095Y-107262380D01*
X132290476Y-107357619D01*
X132242857Y-107405238D01*
X133814285Y-106262380D02*
X133814285Y-106976666D01*
X133766666Y-107119523D01*
X133671428Y-107214761D01*
X133528571Y-107262380D01*
X133433333Y-107262380D01*
X134719047Y-107262380D02*
X134719047Y-106738571D01*
X134671428Y-106643333D01*
X134576190Y-106595714D01*
X134385714Y-106595714D01*
X134290476Y-106643333D01*
X134719047Y-107214761D02*
X134623809Y-107262380D01*
X134385714Y-107262380D01*
X134290476Y-107214761D01*
X134242857Y-107119523D01*
X134242857Y-107024285D01*
X134290476Y-106929047D01*
X134385714Y-106881428D01*
X134623809Y-106881428D01*
X134719047Y-106833809D01*
X135195238Y-107262380D02*
X135195238Y-106595714D01*
X135195238Y-106786190D02*
X135242857Y-106690952D01*
X135290476Y-106643333D01*
X135385714Y-106595714D01*
X135480952Y-106595714D01*
X136195238Y-107214761D02*
X136099999Y-107262380D01*
X135909523Y-107262380D01*
X135814285Y-107214761D01*
X135766666Y-107119523D01*
X135766666Y-106738571D01*
X135814285Y-106643333D01*
X135909523Y-106595714D01*
X136099999Y-106595714D01*
X136195238Y-106643333D01*
X136242857Y-106738571D01*
X136242857Y-106833809D01*
X135766666Y-106929047D01*
X137099999Y-107262380D02*
X137099999Y-106262380D01*
X137099999Y-107214761D02*
X137004761Y-107262380D01*
X136814285Y-107262380D01*
X136719047Y-107214761D01*
X136671428Y-107167142D01*
X136623809Y-107071904D01*
X136623809Y-106786190D01*
X136671428Y-106690952D01*
X136719047Y-106643333D01*
X136814285Y-106595714D01*
X137004761Y-106595714D01*
X137099999Y-106643333D01*
X138338095Y-107262380D02*
X138338095Y-106262380D01*
X138909523Y-107262380D01*
X138909523Y-106262380D01*
X139814285Y-106595714D02*
X139814285Y-107262380D01*
X139385714Y-106595714D02*
X139385714Y-107119523D01*
X139433333Y-107214761D01*
X139528571Y-107262380D01*
X139671428Y-107262380D01*
X139766666Y-107214761D01*
X139814285Y-107167142D01*
X140147619Y-106595714D02*
X140528571Y-106595714D01*
X140290476Y-106262380D02*
X140290476Y-107119523D01*
X140338095Y-107214761D01*
X140433333Y-107262380D01*
X140528571Y-107262380D01*
X140719047Y-106595714D02*
X141099999Y-106595714D01*
X140861904Y-106262380D02*
X140861904Y-107119523D01*
X140909523Y-107214761D01*
X141004761Y-107262380D01*
X141099999Y-107262380D01*
X141480952Y-107214761D02*
X141480952Y-107262380D01*
X141433333Y-107357619D01*
X141385714Y-107405238D01*
X142671428Y-107262380D02*
X142671428Y-106262380D01*
X143004761Y-106976666D01*
X143338095Y-106262380D01*
X143338095Y-107262380D01*
X143814285Y-107262380D02*
X143814285Y-106595714D01*
X143814285Y-106262380D02*
X143766666Y-106310000D01*
X143814285Y-106357619D01*
X143861904Y-106310000D01*
X143814285Y-106262380D01*
X143814285Y-106357619D01*
X144147619Y-106595714D02*
X144528571Y-106595714D01*
X144290476Y-106262380D02*
X144290476Y-107119523D01*
X144338095Y-107214761D01*
X144433333Y-107262380D01*
X144528571Y-107262380D01*
X145290476Y-107214761D02*
X145195238Y-107262380D01*
X145004761Y-107262380D01*
X144909523Y-107214761D01*
X144861904Y-107167142D01*
X144814285Y-107071904D01*
X144814285Y-106786190D01*
X144861904Y-106690952D01*
X144909523Y-106643333D01*
X145004761Y-106595714D01*
X145195238Y-106595714D01*
X145290476Y-106643333D01*
X145719047Y-107262380D02*
X145719047Y-106262380D01*
X146147619Y-107262380D02*
X146147619Y-106738571D01*
X146099999Y-106643333D01*
X146004761Y-106595714D01*
X145861904Y-106595714D01*
X145766666Y-106643333D01*
X145719047Y-106690952D01*
X147385714Y-107262380D02*
X147385714Y-106262380D01*
X147719047Y-106976666D01*
X148052380Y-106262380D01*
X148052380Y-107262380D01*
X148671428Y-107262380D02*
X148576190Y-107214761D01*
X148528571Y-107167142D01*
X148480952Y-107071904D01*
X148480952Y-106786190D01*
X148528571Y-106690952D01*
X148576190Y-106643333D01*
X148671428Y-106595714D01*
X148814285Y-106595714D01*
X148909523Y-106643333D01*
X148957142Y-106690952D01*
X149004761Y-106786190D01*
X149004761Y-107071904D01*
X148957142Y-107167142D01*
X148909523Y-107214761D01*
X148814285Y-107262380D01*
X148671428Y-107262380D01*
X149433333Y-107262380D02*
X149433333Y-106595714D01*
X149433333Y-106786190D02*
X149480952Y-106690952D01*
X149528571Y-106643333D01*
X149623809Y-106595714D01*
X149719047Y-106595714D01*
X150052380Y-107262380D02*
X150052380Y-106595714D01*
X150052380Y-106786190D02*
X150099999Y-106690952D01*
X150147619Y-106643333D01*
X150242857Y-106595714D01*
X150338095Y-106595714D01*
X150671428Y-107262380D02*
X150671428Y-106595714D01*
X150671428Y-106262380D02*
X150623809Y-106310000D01*
X150671428Y-106357619D01*
X150719047Y-106310000D01*
X150671428Y-106262380D01*
X150671428Y-106357619D01*
X151099999Y-107214761D02*
X151195238Y-107262380D01*
X151385714Y-107262380D01*
X151480952Y-107214761D01*
X151528571Y-107119523D01*
X151528571Y-107071904D01*
X151480952Y-106976666D01*
X151385714Y-106929047D01*
X151242857Y-106929047D01*
X151147619Y-106881428D01*
X151099999Y-106786190D01*
X151099999Y-106738571D01*
X151147619Y-106643333D01*
X151242857Y-106595714D01*
X151385714Y-106595714D01*
X151480952Y-106643333D01*
%TO.C,R8*%
X161433333Y-68402380D02*
X161100000Y-67926190D01*
X160861904Y-68402380D02*
X160861904Y-67402380D01*
X161242857Y-67402380D01*
X161338095Y-67450000D01*
X161385714Y-67497619D01*
X161433333Y-67592857D01*
X161433333Y-67735714D01*
X161385714Y-67830952D01*
X161338095Y-67878571D01*
X161242857Y-67926190D01*
X160861904Y-67926190D01*
X162004761Y-67830952D02*
X161909523Y-67783333D01*
X161861904Y-67735714D01*
X161814285Y-67640476D01*
X161814285Y-67592857D01*
X161861904Y-67497619D01*
X161909523Y-67450000D01*
X162004761Y-67402380D01*
X162195238Y-67402380D01*
X162290476Y-67450000D01*
X162338095Y-67497619D01*
X162385714Y-67592857D01*
X162385714Y-67640476D01*
X162338095Y-67735714D01*
X162290476Y-67783333D01*
X162195238Y-67830952D01*
X162004761Y-67830952D01*
X161909523Y-67878571D01*
X161861904Y-67926190D01*
X161814285Y-68021428D01*
X161814285Y-68211904D01*
X161861904Y-68307142D01*
X161909523Y-68354761D01*
X162004761Y-68402380D01*
X162195238Y-68402380D01*
X162290476Y-68354761D01*
X162338095Y-68307142D01*
X162385714Y-68211904D01*
X162385714Y-68021428D01*
X162338095Y-67926190D01*
X162290476Y-67878571D01*
X162195238Y-67830952D01*
%TO.C,C1*%
X84777142Y-55166666D02*
X84824761Y-55214285D01*
X84872380Y-55357142D01*
X84872380Y-55452380D01*
X84824761Y-55595238D01*
X84729523Y-55690476D01*
X84634285Y-55738095D01*
X84443809Y-55785714D01*
X84300952Y-55785714D01*
X84110476Y-55738095D01*
X84015238Y-55690476D01*
X83920000Y-55595238D01*
X83872380Y-55452380D01*
X83872380Y-55357142D01*
X83920000Y-55214285D01*
X83967619Y-55166666D01*
X84872380Y-54214285D02*
X84872380Y-54785714D01*
X84872380Y-54500000D02*
X83872380Y-54500000D01*
X84015238Y-54595238D01*
X84110476Y-54690476D01*
X84158095Y-54785714D01*
%TO.C,U5*%
X85938095Y-93552380D02*
X85938095Y-94361904D01*
X85985714Y-94457142D01*
X86033333Y-94504761D01*
X86128571Y-94552380D01*
X86319047Y-94552380D01*
X86414285Y-94504761D01*
X86461904Y-94457142D01*
X86509523Y-94361904D01*
X86509523Y-93552380D01*
X87461904Y-93552380D02*
X86985714Y-93552380D01*
X86938095Y-94028571D01*
X86985714Y-93980952D01*
X87080952Y-93933333D01*
X87319047Y-93933333D01*
X87414285Y-93980952D01*
X87461904Y-94028571D01*
X87509523Y-94123809D01*
X87509523Y-94361904D01*
X87461904Y-94457142D01*
X87414285Y-94504761D01*
X87319047Y-94552380D01*
X87080952Y-94552380D01*
X86985714Y-94504761D01*
X86938095Y-94457142D01*
%TO.C,J3*%
X66666666Y-83292380D02*
X66666666Y-84006666D01*
X66619047Y-84149523D01*
X66523809Y-84244761D01*
X66380952Y-84292380D01*
X66285714Y-84292380D01*
X67047619Y-83292380D02*
X67666666Y-83292380D01*
X67333333Y-83673333D01*
X67476190Y-83673333D01*
X67571428Y-83720952D01*
X67619047Y-83768571D01*
X67666666Y-83863809D01*
X67666666Y-84101904D01*
X67619047Y-84197142D01*
X67571428Y-84244761D01*
X67476190Y-84292380D01*
X67190476Y-84292380D01*
X67095238Y-84244761D01*
X67047619Y-84197142D01*
%TO.C,C3*%
X89833333Y-74377142D02*
X89785714Y-74424761D01*
X89642857Y-74472380D01*
X89547619Y-74472380D01*
X89404761Y-74424761D01*
X89309523Y-74329523D01*
X89261904Y-74234285D01*
X89214285Y-74043809D01*
X89214285Y-73900952D01*
X89261904Y-73710476D01*
X89309523Y-73615238D01*
X89404761Y-73520000D01*
X89547619Y-73472380D01*
X89642857Y-73472380D01*
X89785714Y-73520000D01*
X89833333Y-73567619D01*
X90166666Y-73472380D02*
X90785714Y-73472380D01*
X90452380Y-73853333D01*
X90595238Y-73853333D01*
X90690476Y-73900952D01*
X90738095Y-73948571D01*
X90785714Y-74043809D01*
X90785714Y-74281904D01*
X90738095Y-74377142D01*
X90690476Y-74424761D01*
X90595238Y-74472380D01*
X90309523Y-74472380D01*
X90214285Y-74424761D01*
X90166666Y-74377142D01*
%TO.C,R12*%
X112902380Y-55542857D02*
X112426190Y-55876190D01*
X112902380Y-56114285D02*
X111902380Y-56114285D01*
X111902380Y-55733333D01*
X111950000Y-55638095D01*
X111997619Y-55590476D01*
X112092857Y-55542857D01*
X112235714Y-55542857D01*
X112330952Y-55590476D01*
X112378571Y-55638095D01*
X112426190Y-55733333D01*
X112426190Y-56114285D01*
X112902380Y-54590476D02*
X112902380Y-55161904D01*
X112902380Y-54876190D02*
X111902380Y-54876190D01*
X112045238Y-54971428D01*
X112140476Y-55066666D01*
X112188095Y-55161904D01*
X111997619Y-54209523D02*
X111950000Y-54161904D01*
X111902380Y-54066666D01*
X111902380Y-53828571D01*
X111950000Y-53733333D01*
X111997619Y-53685714D01*
X112092857Y-53638095D01*
X112188095Y-53638095D01*
X112330952Y-53685714D01*
X112902380Y-54257142D01*
X112902380Y-53638095D01*
%TO.C,C22*%
X146977142Y-90542857D02*
X147024761Y-90590476D01*
X147072380Y-90733333D01*
X147072380Y-90828571D01*
X147024761Y-90971428D01*
X146929523Y-91066666D01*
X146834285Y-91114285D01*
X146643809Y-91161904D01*
X146500952Y-91161904D01*
X146310476Y-91114285D01*
X146215238Y-91066666D01*
X146120000Y-90971428D01*
X146072380Y-90828571D01*
X146072380Y-90733333D01*
X146120000Y-90590476D01*
X146167619Y-90542857D01*
X146167619Y-90161904D02*
X146120000Y-90114285D01*
X146072380Y-90019047D01*
X146072380Y-89780952D01*
X146120000Y-89685714D01*
X146167619Y-89638095D01*
X146262857Y-89590476D01*
X146358095Y-89590476D01*
X146500952Y-89638095D01*
X147072380Y-90209523D01*
X147072380Y-89590476D01*
X146167619Y-89209523D02*
X146120000Y-89161904D01*
X146072380Y-89066666D01*
X146072380Y-88828571D01*
X146120000Y-88733333D01*
X146167619Y-88685714D01*
X146262857Y-88638095D01*
X146358095Y-88638095D01*
X146500952Y-88685714D01*
X147072380Y-89257142D01*
X147072380Y-88638095D01*
%TO.C,J1*%
X63242380Y-54153333D02*
X63956666Y-54153333D01*
X64099523Y-54200952D01*
X64194761Y-54296190D01*
X64242380Y-54439047D01*
X64242380Y-54534285D01*
X64242380Y-53153333D02*
X64242380Y-53724761D01*
X64242380Y-53439047D02*
X63242380Y-53439047D01*
X63385238Y-53534285D01*
X63480476Y-53629523D01*
X63528095Y-53724761D01*
%TO.C,C9*%
X96537142Y-62566666D02*
X96584761Y-62614285D01*
X96632380Y-62757142D01*
X96632380Y-62852380D01*
X96584761Y-62995238D01*
X96489523Y-63090476D01*
X96394285Y-63138095D01*
X96203809Y-63185714D01*
X96060952Y-63185714D01*
X95870476Y-63138095D01*
X95775238Y-63090476D01*
X95680000Y-62995238D01*
X95632380Y-62852380D01*
X95632380Y-62757142D01*
X95680000Y-62614285D01*
X95727619Y-62566666D01*
X96632380Y-62090476D02*
X96632380Y-61900000D01*
X96584761Y-61804761D01*
X96537142Y-61757142D01*
X96394285Y-61661904D01*
X96203809Y-61614285D01*
X95822857Y-61614285D01*
X95727619Y-61661904D01*
X95680000Y-61709523D01*
X95632380Y-61804761D01*
X95632380Y-61995238D01*
X95680000Y-62090476D01*
X95727619Y-62138095D01*
X95822857Y-62185714D01*
X96060952Y-62185714D01*
X96156190Y-62138095D01*
X96203809Y-62090476D01*
X96251428Y-61995238D01*
X96251428Y-61804761D01*
X96203809Y-61709523D01*
X96156190Y-61661904D01*
X96060952Y-61614285D01*
%TO.C,J2*%
X104192380Y-51633333D02*
X104906666Y-51633333D01*
X105049523Y-51680952D01*
X105144761Y-51776190D01*
X105192380Y-51919047D01*
X105192380Y-52014285D01*
X104287619Y-51204761D02*
X104240000Y-51157142D01*
X104192380Y-51061904D01*
X104192380Y-50823809D01*
X104240000Y-50728571D01*
X104287619Y-50680952D01*
X104382857Y-50633333D01*
X104478095Y-50633333D01*
X104620952Y-50680952D01*
X105192380Y-51252380D01*
X105192380Y-50633333D01*
%TO.C,R17*%
X114802380Y-87742857D02*
X114326190Y-88076190D01*
X114802380Y-88314285D02*
X113802380Y-88314285D01*
X113802380Y-87933333D01*
X113850000Y-87838095D01*
X113897619Y-87790476D01*
X113992857Y-87742857D01*
X114135714Y-87742857D01*
X114230952Y-87790476D01*
X114278571Y-87838095D01*
X114326190Y-87933333D01*
X114326190Y-88314285D01*
X114802380Y-86790476D02*
X114802380Y-87361904D01*
X114802380Y-87076190D02*
X113802380Y-87076190D01*
X113945238Y-87171428D01*
X114040476Y-87266666D01*
X114088095Y-87361904D01*
X113802380Y-86457142D02*
X113802380Y-85790476D01*
X114802380Y-86219047D01*
%TO.C,C10*%
X101137142Y-63042857D02*
X101184761Y-63090476D01*
X101232380Y-63233333D01*
X101232380Y-63328571D01*
X101184761Y-63471428D01*
X101089523Y-63566666D01*
X100994285Y-63614285D01*
X100803809Y-63661904D01*
X100660952Y-63661904D01*
X100470476Y-63614285D01*
X100375238Y-63566666D01*
X100280000Y-63471428D01*
X100232380Y-63328571D01*
X100232380Y-63233333D01*
X100280000Y-63090476D01*
X100327619Y-63042857D01*
X101232380Y-62090476D02*
X101232380Y-62661904D01*
X101232380Y-62376190D02*
X100232380Y-62376190D01*
X100375238Y-62471428D01*
X100470476Y-62566666D01*
X100518095Y-62661904D01*
X100232380Y-61471428D02*
X100232380Y-61376190D01*
X100280000Y-61280952D01*
X100327619Y-61233333D01*
X100422857Y-61185714D01*
X100613333Y-61138095D01*
X100851428Y-61138095D01*
X101041904Y-61185714D01*
X101137142Y-61233333D01*
X101184761Y-61280952D01*
X101232380Y-61376190D01*
X101232380Y-61471428D01*
X101184761Y-61566666D01*
X101137142Y-61614285D01*
X101041904Y-61661904D01*
X100851428Y-61709523D01*
X100613333Y-61709523D01*
X100422857Y-61661904D01*
X100327619Y-61614285D01*
X100280000Y-61566666D01*
X100232380Y-61471428D01*
%TO.C,D1*%
X160761904Y-74402380D02*
X160761904Y-73402380D01*
X161000000Y-73402380D01*
X161142857Y-73450000D01*
X161238095Y-73545238D01*
X161285714Y-73640476D01*
X161333333Y-73830952D01*
X161333333Y-73973809D01*
X161285714Y-74164285D01*
X161238095Y-74259523D01*
X161142857Y-74354761D01*
X161000000Y-74402380D01*
X160761904Y-74402380D01*
X162285714Y-74402380D02*
X161714285Y-74402380D01*
X162000000Y-74402380D02*
X162000000Y-73402380D01*
X161904761Y-73545238D01*
X161809523Y-73640476D01*
X161714285Y-73688095D01*
%TO.C,R4*%
X89533333Y-63002380D02*
X89200000Y-62526190D01*
X88961904Y-63002380D02*
X88961904Y-62002380D01*
X89342857Y-62002380D01*
X89438095Y-62050000D01*
X89485714Y-62097619D01*
X89533333Y-62192857D01*
X89533333Y-62335714D01*
X89485714Y-62430952D01*
X89438095Y-62478571D01*
X89342857Y-62526190D01*
X88961904Y-62526190D01*
X90390476Y-62335714D02*
X90390476Y-63002380D01*
X90152380Y-61954761D02*
X89914285Y-62669047D01*
X90533333Y-62669047D01*
%TO.C,D4*%
X108661904Y-100472380D02*
X108661904Y-99472380D01*
X108900000Y-99472380D01*
X109042857Y-99520000D01*
X109138095Y-99615238D01*
X109185714Y-99710476D01*
X109233333Y-99900952D01*
X109233333Y-100043809D01*
X109185714Y-100234285D01*
X109138095Y-100329523D01*
X109042857Y-100424761D01*
X108900000Y-100472380D01*
X108661904Y-100472380D01*
X110090476Y-99805714D02*
X110090476Y-100472380D01*
X109852380Y-99424761D02*
X109614285Y-100139047D01*
X110233333Y-100139047D01*
X112948095Y-100152380D02*
X112948095Y-99152380D01*
X113519523Y-100152380D02*
X113090952Y-99580952D01*
X113519523Y-99152380D02*
X112948095Y-99723809D01*
%TO.C,R1*%
X87833333Y-79202380D02*
X87500000Y-78726190D01*
X87261904Y-79202380D02*
X87261904Y-78202380D01*
X87642857Y-78202380D01*
X87738095Y-78250000D01*
X87785714Y-78297619D01*
X87833333Y-78392857D01*
X87833333Y-78535714D01*
X87785714Y-78630952D01*
X87738095Y-78678571D01*
X87642857Y-78726190D01*
X87261904Y-78726190D01*
X88785714Y-79202380D02*
X88214285Y-79202380D01*
X88500000Y-79202380D02*
X88500000Y-78202380D01*
X88404761Y-78345238D01*
X88309523Y-78440476D01*
X88214285Y-78488095D01*
%TO.C,C15*%
X109257142Y-74477142D02*
X109209523Y-74524761D01*
X109066666Y-74572380D01*
X108971428Y-74572380D01*
X108828571Y-74524761D01*
X108733333Y-74429523D01*
X108685714Y-74334285D01*
X108638095Y-74143809D01*
X108638095Y-74000952D01*
X108685714Y-73810476D01*
X108733333Y-73715238D01*
X108828571Y-73620000D01*
X108971428Y-73572380D01*
X109066666Y-73572380D01*
X109209523Y-73620000D01*
X109257142Y-73667619D01*
X110209523Y-74572380D02*
X109638095Y-74572380D01*
X109923809Y-74572380D02*
X109923809Y-73572380D01*
X109828571Y-73715238D01*
X109733333Y-73810476D01*
X109638095Y-73858095D01*
X111114285Y-73572380D02*
X110638095Y-73572380D01*
X110590476Y-74048571D01*
X110638095Y-74000952D01*
X110733333Y-73953333D01*
X110971428Y-73953333D01*
X111066666Y-74000952D01*
X111114285Y-74048571D01*
X111161904Y-74143809D01*
X111161904Y-74381904D01*
X111114285Y-74477142D01*
X111066666Y-74524761D01*
X110971428Y-74572380D01*
X110733333Y-74572380D01*
X110638095Y-74524761D01*
X110590476Y-74477142D01*
%TO.C,R2*%
X89733333Y-69702380D02*
X89400000Y-69226190D01*
X89161904Y-69702380D02*
X89161904Y-68702380D01*
X89542857Y-68702380D01*
X89638095Y-68750000D01*
X89685714Y-68797619D01*
X89733333Y-68892857D01*
X89733333Y-69035714D01*
X89685714Y-69130952D01*
X89638095Y-69178571D01*
X89542857Y-69226190D01*
X89161904Y-69226190D01*
X90114285Y-68797619D02*
X90161904Y-68750000D01*
X90257142Y-68702380D01*
X90495238Y-68702380D01*
X90590476Y-68750000D01*
X90638095Y-68797619D01*
X90685714Y-68892857D01*
X90685714Y-68988095D01*
X90638095Y-69130952D01*
X90066666Y-69702380D01*
X90685714Y-69702380D01*
%TO.C,C2*%
X72733333Y-69957142D02*
X72685714Y-70004761D01*
X72542857Y-70052380D01*
X72447619Y-70052380D01*
X72304761Y-70004761D01*
X72209523Y-69909523D01*
X72161904Y-69814285D01*
X72114285Y-69623809D01*
X72114285Y-69480952D01*
X72161904Y-69290476D01*
X72209523Y-69195238D01*
X72304761Y-69100000D01*
X72447619Y-69052380D01*
X72542857Y-69052380D01*
X72685714Y-69100000D01*
X72733333Y-69147619D01*
X73114285Y-69147619D02*
X73161904Y-69100000D01*
X73257142Y-69052380D01*
X73495238Y-69052380D01*
X73590476Y-69100000D01*
X73638095Y-69147619D01*
X73685714Y-69242857D01*
X73685714Y-69338095D01*
X73638095Y-69480952D01*
X73066666Y-70052380D01*
X73685714Y-70052380D01*
%TO.C,R13*%
X104657142Y-58302380D02*
X104323809Y-57826190D01*
X104085714Y-58302380D02*
X104085714Y-57302380D01*
X104466666Y-57302380D01*
X104561904Y-57350000D01*
X104609523Y-57397619D01*
X104657142Y-57492857D01*
X104657142Y-57635714D01*
X104609523Y-57730952D01*
X104561904Y-57778571D01*
X104466666Y-57826190D01*
X104085714Y-57826190D01*
X105609523Y-58302380D02*
X105038095Y-58302380D01*
X105323809Y-58302380D02*
X105323809Y-57302380D01*
X105228571Y-57445238D01*
X105133333Y-57540476D01*
X105038095Y-57588095D01*
X105942857Y-57302380D02*
X106561904Y-57302380D01*
X106228571Y-57683333D01*
X106371428Y-57683333D01*
X106466666Y-57730952D01*
X106514285Y-57778571D01*
X106561904Y-57873809D01*
X106561904Y-58111904D01*
X106514285Y-58207142D01*
X106466666Y-58254761D01*
X106371428Y-58302380D01*
X106085714Y-58302380D01*
X105990476Y-58254761D01*
X105942857Y-58207142D01*
%TO.C,D2*%
X161061904Y-92302380D02*
X161061904Y-91302380D01*
X161300000Y-91302380D01*
X161442857Y-91350000D01*
X161538095Y-91445238D01*
X161585714Y-91540476D01*
X161633333Y-91730952D01*
X161633333Y-91873809D01*
X161585714Y-92064285D01*
X161538095Y-92159523D01*
X161442857Y-92254761D01*
X161300000Y-92302380D01*
X161061904Y-92302380D01*
X162014285Y-91397619D02*
X162061904Y-91350000D01*
X162157142Y-91302380D01*
X162395238Y-91302380D01*
X162490476Y-91350000D01*
X162538095Y-91397619D01*
X162585714Y-91492857D01*
X162585714Y-91588095D01*
X162538095Y-91730952D01*
X161966666Y-92302380D01*
X162585714Y-92302380D01*
%TO.C,SW1*%
X178764761Y-59173333D02*
X178812380Y-59030476D01*
X178812380Y-58792380D01*
X178764761Y-58697142D01*
X178717142Y-58649523D01*
X178621904Y-58601904D01*
X178526666Y-58601904D01*
X178431428Y-58649523D01*
X178383809Y-58697142D01*
X178336190Y-58792380D01*
X178288571Y-58982857D01*
X178240952Y-59078095D01*
X178193333Y-59125714D01*
X178098095Y-59173333D01*
X178002857Y-59173333D01*
X177907619Y-59125714D01*
X177860000Y-59078095D01*
X177812380Y-58982857D01*
X177812380Y-58744761D01*
X177860000Y-58601904D01*
X177812380Y-58268571D02*
X178812380Y-58030476D01*
X178098095Y-57840000D01*
X178812380Y-57649523D01*
X177812380Y-57411428D01*
X178812380Y-56506666D02*
X178812380Y-57078095D01*
X178812380Y-56792380D02*
X177812380Y-56792380D01*
X177955238Y-56887619D01*
X178050476Y-56982857D01*
X178098095Y-57078095D01*
%TO.C,D3*%
X160861904Y-56902380D02*
X160861904Y-55902380D01*
X161100000Y-55902380D01*
X161242857Y-55950000D01*
X161338095Y-56045238D01*
X161385714Y-56140476D01*
X161433333Y-56330952D01*
X161433333Y-56473809D01*
X161385714Y-56664285D01*
X161338095Y-56759523D01*
X161242857Y-56854761D01*
X161100000Y-56902380D01*
X160861904Y-56902380D01*
X161766666Y-55902380D02*
X162385714Y-55902380D01*
X162052380Y-56283333D01*
X162195238Y-56283333D01*
X162290476Y-56330952D01*
X162338095Y-56378571D01*
X162385714Y-56473809D01*
X162385714Y-56711904D01*
X162338095Y-56807142D01*
X162290476Y-56854761D01*
X162195238Y-56902380D01*
X161909523Y-56902380D01*
X161814285Y-56854761D01*
X161766666Y-56807142D01*
%TO.C,J7*%
X66666666Y-73412380D02*
X66666666Y-74126666D01*
X66619047Y-74269523D01*
X66523809Y-74364761D01*
X66380952Y-74412380D01*
X66285714Y-74412380D01*
X67047619Y-73412380D02*
X67714285Y-73412380D01*
X67285714Y-74412380D01*
%TO.C,C17*%
X101357142Y-53337142D02*
X101309523Y-53384761D01*
X101166666Y-53432380D01*
X101071428Y-53432380D01*
X100928571Y-53384761D01*
X100833333Y-53289523D01*
X100785714Y-53194285D01*
X100738095Y-53003809D01*
X100738095Y-52860952D01*
X100785714Y-52670476D01*
X100833333Y-52575238D01*
X100928571Y-52480000D01*
X101071428Y-52432380D01*
X101166666Y-52432380D01*
X101309523Y-52480000D01*
X101357142Y-52527619D01*
X102309523Y-53432380D02*
X101738095Y-53432380D01*
X102023809Y-53432380D02*
X102023809Y-52432380D01*
X101928571Y-52575238D01*
X101833333Y-52670476D01*
X101738095Y-52718095D01*
X102642857Y-52432380D02*
X103309523Y-52432380D01*
X102880952Y-53432380D01*
%TO.C,C23*%
X151677142Y-90542857D02*
X151724761Y-90590476D01*
X151772380Y-90733333D01*
X151772380Y-90828571D01*
X151724761Y-90971428D01*
X151629523Y-91066666D01*
X151534285Y-91114285D01*
X151343809Y-91161904D01*
X151200952Y-91161904D01*
X151010476Y-91114285D01*
X150915238Y-91066666D01*
X150820000Y-90971428D01*
X150772380Y-90828571D01*
X150772380Y-90733333D01*
X150820000Y-90590476D01*
X150867619Y-90542857D01*
X150867619Y-90161904D02*
X150820000Y-90114285D01*
X150772380Y-90019047D01*
X150772380Y-89780952D01*
X150820000Y-89685714D01*
X150867619Y-89638095D01*
X150962857Y-89590476D01*
X151058095Y-89590476D01*
X151200952Y-89638095D01*
X151772380Y-90209523D01*
X151772380Y-89590476D01*
X150772380Y-89257142D02*
X150772380Y-88638095D01*
X151153333Y-88971428D01*
X151153333Y-88828571D01*
X151200952Y-88733333D01*
X151248571Y-88685714D01*
X151343809Y-88638095D01*
X151581904Y-88638095D01*
X151677142Y-88685714D01*
X151724761Y-88733333D01*
X151772380Y-88828571D01*
X151772380Y-89114285D01*
X151724761Y-89209523D01*
X151677142Y-89257142D01*
%TO.C,C18*%
X104037142Y-100642857D02*
X104084761Y-100690476D01*
X104132380Y-100833333D01*
X104132380Y-100928571D01*
X104084761Y-101071428D01*
X103989523Y-101166666D01*
X103894285Y-101214285D01*
X103703809Y-101261904D01*
X103560952Y-101261904D01*
X103370476Y-101214285D01*
X103275238Y-101166666D01*
X103180000Y-101071428D01*
X103132380Y-100928571D01*
X103132380Y-100833333D01*
X103180000Y-100690476D01*
X103227619Y-100642857D01*
X104132380Y-99690476D02*
X104132380Y-100261904D01*
X104132380Y-99976190D02*
X103132380Y-99976190D01*
X103275238Y-100071428D01*
X103370476Y-100166666D01*
X103418095Y-100261904D01*
X103560952Y-99119047D02*
X103513333Y-99214285D01*
X103465714Y-99261904D01*
X103370476Y-99309523D01*
X103322857Y-99309523D01*
X103227619Y-99261904D01*
X103180000Y-99214285D01*
X103132380Y-99119047D01*
X103132380Y-98928571D01*
X103180000Y-98833333D01*
X103227619Y-98785714D01*
X103322857Y-98738095D01*
X103370476Y-98738095D01*
X103465714Y-98785714D01*
X103513333Y-98833333D01*
X103560952Y-98928571D01*
X103560952Y-99119047D01*
X103608571Y-99214285D01*
X103656190Y-99261904D01*
X103751428Y-99309523D01*
X103941904Y-99309523D01*
X104037142Y-99261904D01*
X104084761Y-99214285D01*
X104132380Y-99119047D01*
X104132380Y-98928571D01*
X104084761Y-98833333D01*
X104037142Y-98785714D01*
X103941904Y-98738095D01*
X103751428Y-98738095D01*
X103656190Y-98785714D01*
X103608571Y-98833333D01*
X103560952Y-98928571D01*
%TO.C,C12*%
X159037142Y-77342857D02*
X159084761Y-77390476D01*
X159132380Y-77533333D01*
X159132380Y-77628571D01*
X159084761Y-77771428D01*
X158989523Y-77866666D01*
X158894285Y-77914285D01*
X158703809Y-77961904D01*
X158560952Y-77961904D01*
X158370476Y-77914285D01*
X158275238Y-77866666D01*
X158180000Y-77771428D01*
X158132380Y-77628571D01*
X158132380Y-77533333D01*
X158180000Y-77390476D01*
X158227619Y-77342857D01*
X159132380Y-76390476D02*
X159132380Y-76961904D01*
X159132380Y-76676190D02*
X158132380Y-76676190D01*
X158275238Y-76771428D01*
X158370476Y-76866666D01*
X158418095Y-76961904D01*
X158227619Y-76009523D02*
X158180000Y-75961904D01*
X158132380Y-75866666D01*
X158132380Y-75628571D01*
X158180000Y-75533333D01*
X158227619Y-75485714D01*
X158322857Y-75438095D01*
X158418095Y-75438095D01*
X158560952Y-75485714D01*
X159132380Y-76057142D01*
X159132380Y-75438095D01*
%TO.C,+5V*%
X72914285Y-75723428D02*
X73676190Y-75723428D01*
X73295238Y-76104380D02*
X73295238Y-75342476D01*
X74628571Y-75104380D02*
X74152380Y-75104380D01*
X74104761Y-75580571D01*
X74152380Y-75532952D01*
X74247619Y-75485333D01*
X74485714Y-75485333D01*
X74580952Y-75532952D01*
X74628571Y-75580571D01*
X74676190Y-75675809D01*
X74676190Y-75913904D01*
X74628571Y-76009142D01*
X74580952Y-76056761D01*
X74485714Y-76104380D01*
X74247619Y-76104380D01*
X74152380Y-76056761D01*
X74104761Y-76009142D01*
X74961904Y-75104380D02*
X75295238Y-76104380D01*
X75628571Y-75104380D01*
%TO.C,U1*%
X85452380Y-74861904D02*
X86261904Y-74861904D01*
X86357142Y-74814285D01*
X86404761Y-74766666D01*
X86452380Y-74671428D01*
X86452380Y-74480952D01*
X86404761Y-74385714D01*
X86357142Y-74338095D01*
X86261904Y-74290476D01*
X85452380Y-74290476D01*
X86452380Y-73290476D02*
X86452380Y-73861904D01*
X86452380Y-73576190D02*
X85452380Y-73576190D01*
X85595238Y-73671428D01*
X85690476Y-73766666D01*
X85738095Y-73861904D01*
%TO.C,R20*%
X152057142Y-83302380D02*
X151723809Y-82826190D01*
X151485714Y-83302380D02*
X151485714Y-82302380D01*
X151866666Y-82302380D01*
X151961904Y-82350000D01*
X152009523Y-82397619D01*
X152057142Y-82492857D01*
X152057142Y-82635714D01*
X152009523Y-82730952D01*
X151961904Y-82778571D01*
X151866666Y-82826190D01*
X151485714Y-82826190D01*
X152438095Y-82397619D02*
X152485714Y-82350000D01*
X152580952Y-82302380D01*
X152819047Y-82302380D01*
X152914285Y-82350000D01*
X152961904Y-82397619D01*
X153009523Y-82492857D01*
X153009523Y-82588095D01*
X152961904Y-82730952D01*
X152390476Y-83302380D01*
X153009523Y-83302380D01*
X153628571Y-82302380D02*
X153723809Y-82302380D01*
X153819047Y-82350000D01*
X153866666Y-82397619D01*
X153914285Y-82492857D01*
X153961904Y-82683333D01*
X153961904Y-82921428D01*
X153914285Y-83111904D01*
X153866666Y-83207142D01*
X153819047Y-83254761D01*
X153723809Y-83302380D01*
X153628571Y-83302380D01*
X153533333Y-83254761D01*
X153485714Y-83207142D01*
X153438095Y-83111904D01*
X153390476Y-82921428D01*
X153390476Y-82683333D01*
X153438095Y-82492857D01*
X153485714Y-82397619D01*
X153533333Y-82350000D01*
X153628571Y-82302380D01*
%TO.C,R7*%
X161733333Y-98702380D02*
X161400000Y-98226190D01*
X161161904Y-98702380D02*
X161161904Y-97702380D01*
X161542857Y-97702380D01*
X161638095Y-97750000D01*
X161685714Y-97797619D01*
X161733333Y-97892857D01*
X161733333Y-98035714D01*
X161685714Y-98130952D01*
X161638095Y-98178571D01*
X161542857Y-98226190D01*
X161161904Y-98226190D01*
X162066666Y-97702380D02*
X162733333Y-97702380D01*
X162304761Y-98702380D01*
%TO.C,R10*%
X160957142Y-53902380D02*
X160623809Y-53426190D01*
X160385714Y-53902380D02*
X160385714Y-52902380D01*
X160766666Y-52902380D01*
X160861904Y-52950000D01*
X160909523Y-52997619D01*
X160957142Y-53092857D01*
X160957142Y-53235714D01*
X160909523Y-53330952D01*
X160861904Y-53378571D01*
X160766666Y-53426190D01*
X160385714Y-53426190D01*
X161909523Y-53902380D02*
X161338095Y-53902380D01*
X161623809Y-53902380D02*
X161623809Y-52902380D01*
X161528571Y-53045238D01*
X161433333Y-53140476D01*
X161338095Y-53188095D01*
X162528571Y-52902380D02*
X162623809Y-52902380D01*
X162719047Y-52950000D01*
X162766666Y-52997619D01*
X162814285Y-53092857D01*
X162861904Y-53283333D01*
X162861904Y-53521428D01*
X162814285Y-53711904D01*
X162766666Y-53807142D01*
X162719047Y-53854761D01*
X162623809Y-53902380D01*
X162528571Y-53902380D01*
X162433333Y-53854761D01*
X162385714Y-53807142D01*
X162338095Y-53711904D01*
X162290476Y-53521428D01*
X162290476Y-53283333D01*
X162338095Y-53092857D01*
X162385714Y-52997619D01*
X162433333Y-52950000D01*
X162528571Y-52902380D01*
%TO.C,C16*%
X101557142Y-68437142D02*
X101509523Y-68484761D01*
X101366666Y-68532380D01*
X101271428Y-68532380D01*
X101128571Y-68484761D01*
X101033333Y-68389523D01*
X100985714Y-68294285D01*
X100938095Y-68103809D01*
X100938095Y-67960952D01*
X100985714Y-67770476D01*
X101033333Y-67675238D01*
X101128571Y-67580000D01*
X101271428Y-67532380D01*
X101366666Y-67532380D01*
X101509523Y-67580000D01*
X101557142Y-67627619D01*
X102509523Y-68532380D02*
X101938095Y-68532380D01*
X102223809Y-68532380D02*
X102223809Y-67532380D01*
X102128571Y-67675238D01*
X102033333Y-67770476D01*
X101938095Y-67818095D01*
X103366666Y-67532380D02*
X103176190Y-67532380D01*
X103080952Y-67580000D01*
X103033333Y-67627619D01*
X102938095Y-67770476D01*
X102890476Y-67960952D01*
X102890476Y-68341904D01*
X102938095Y-68437142D01*
X102985714Y-68484761D01*
X103080952Y-68532380D01*
X103271428Y-68532380D01*
X103366666Y-68484761D01*
X103414285Y-68437142D01*
X103461904Y-68341904D01*
X103461904Y-68103809D01*
X103414285Y-68008571D01*
X103366666Y-67960952D01*
X103271428Y-67913333D01*
X103080952Y-67913333D01*
X102985714Y-67960952D01*
X102938095Y-68008571D01*
X102890476Y-68103809D01*
%TO.C,J5*%
X137512380Y-52233333D02*
X138226666Y-52233333D01*
X138369523Y-52280952D01*
X138464761Y-52376190D01*
X138512380Y-52519047D01*
X138512380Y-52614285D01*
X137512380Y-51280952D02*
X137512380Y-51757142D01*
X137988571Y-51804761D01*
X137940952Y-51757142D01*
X137893333Y-51661904D01*
X137893333Y-51423809D01*
X137940952Y-51328571D01*
X137988571Y-51280952D01*
X138083809Y-51233333D01*
X138321904Y-51233333D01*
X138417142Y-51280952D01*
X138464761Y-51328571D01*
X138512380Y-51423809D01*
X138512380Y-51661904D01*
X138464761Y-51757142D01*
X138417142Y-51804761D01*
%TO.C,C4*%
X89377142Y-55166666D02*
X89424761Y-55214285D01*
X89472380Y-55357142D01*
X89472380Y-55452380D01*
X89424761Y-55595238D01*
X89329523Y-55690476D01*
X89234285Y-55738095D01*
X89043809Y-55785714D01*
X88900952Y-55785714D01*
X88710476Y-55738095D01*
X88615238Y-55690476D01*
X88520000Y-55595238D01*
X88472380Y-55452380D01*
X88472380Y-55357142D01*
X88520000Y-55214285D01*
X88567619Y-55166666D01*
X88805714Y-54309523D02*
X89472380Y-54309523D01*
X88424761Y-54547619D02*
X89139047Y-54785714D01*
X89139047Y-54166666D01*
%TO.C,C19*%
X82657142Y-102377142D02*
X82609523Y-102424761D01*
X82466666Y-102472380D01*
X82371428Y-102472380D01*
X82228571Y-102424761D01*
X82133333Y-102329523D01*
X82085714Y-102234285D01*
X82038095Y-102043809D01*
X82038095Y-101900952D01*
X82085714Y-101710476D01*
X82133333Y-101615238D01*
X82228571Y-101520000D01*
X82371428Y-101472380D01*
X82466666Y-101472380D01*
X82609523Y-101520000D01*
X82657142Y-101567619D01*
X83609523Y-102472380D02*
X83038095Y-102472380D01*
X83323809Y-102472380D02*
X83323809Y-101472380D01*
X83228571Y-101615238D01*
X83133333Y-101710476D01*
X83038095Y-101758095D01*
X84085714Y-102472380D02*
X84276190Y-102472380D01*
X84371428Y-102424761D01*
X84419047Y-102377142D01*
X84514285Y-102234285D01*
X84561904Y-102043809D01*
X84561904Y-101662857D01*
X84514285Y-101567619D01*
X84466666Y-101520000D01*
X84371428Y-101472380D01*
X84180952Y-101472380D01*
X84085714Y-101520000D01*
X84038095Y-101567619D01*
X83990476Y-101662857D01*
X83990476Y-101900952D01*
X84038095Y-101996190D01*
X84085714Y-102043809D01*
X84180952Y-102091428D01*
X84371428Y-102091428D01*
X84466666Y-102043809D01*
X84514285Y-101996190D01*
X84561904Y-101900952D01*
%TO.C,R3*%
X86733333Y-61052380D02*
X86400000Y-60576190D01*
X86161904Y-61052380D02*
X86161904Y-60052380D01*
X86542857Y-60052380D01*
X86638095Y-60100000D01*
X86685714Y-60147619D01*
X86733333Y-60242857D01*
X86733333Y-60385714D01*
X86685714Y-60480952D01*
X86638095Y-60528571D01*
X86542857Y-60576190D01*
X86161904Y-60576190D01*
X87066666Y-60052380D02*
X87685714Y-60052380D01*
X87352380Y-60433333D01*
X87495238Y-60433333D01*
X87590476Y-60480952D01*
X87638095Y-60528571D01*
X87685714Y-60623809D01*
X87685714Y-60861904D01*
X87638095Y-60957142D01*
X87590476Y-61004761D01*
X87495238Y-61052380D01*
X87209523Y-61052380D01*
X87114285Y-61004761D01*
X87066666Y-60957142D01*
%TO.C,U3*%
X153502380Y-77561904D02*
X154311904Y-77561904D01*
X154407142Y-77514285D01*
X154454761Y-77466666D01*
X154502380Y-77371428D01*
X154502380Y-77180952D01*
X154454761Y-77085714D01*
X154407142Y-77038095D01*
X154311904Y-76990476D01*
X153502380Y-76990476D01*
X153502380Y-76609523D02*
X153502380Y-75990476D01*
X153883333Y-76323809D01*
X153883333Y-76180952D01*
X153930952Y-76085714D01*
X153978571Y-76038095D01*
X154073809Y-75990476D01*
X154311904Y-75990476D01*
X154407142Y-76038095D01*
X154454761Y-76085714D01*
X154502380Y-76180952D01*
X154502380Y-76466666D01*
X154454761Y-76561904D01*
X154407142Y-76609523D01*
%TO.C,C6*%
X80233333Y-52537142D02*
X80185714Y-52584761D01*
X80042857Y-52632380D01*
X79947619Y-52632380D01*
X79804761Y-52584761D01*
X79709523Y-52489523D01*
X79661904Y-52394285D01*
X79614285Y-52203809D01*
X79614285Y-52060952D01*
X79661904Y-51870476D01*
X79709523Y-51775238D01*
X79804761Y-51680000D01*
X79947619Y-51632380D01*
X80042857Y-51632380D01*
X80185714Y-51680000D01*
X80233333Y-51727619D01*
X81090476Y-51632380D02*
X80900000Y-51632380D01*
X80804761Y-51680000D01*
X80757142Y-51727619D01*
X80661904Y-51870476D01*
X80614285Y-52060952D01*
X80614285Y-52441904D01*
X80661904Y-52537142D01*
X80709523Y-52584761D01*
X80804761Y-52632380D01*
X80995238Y-52632380D01*
X81090476Y-52584761D01*
X81138095Y-52537142D01*
X81185714Y-52441904D01*
X81185714Y-52203809D01*
X81138095Y-52108571D01*
X81090476Y-52060952D01*
X80995238Y-52013333D01*
X80804761Y-52013333D01*
X80709523Y-52060952D01*
X80661904Y-52108571D01*
X80614285Y-52203809D01*
%TO.C,U6*%
X97138095Y-82602380D02*
X97138095Y-83411904D01*
X97185714Y-83507142D01*
X97233333Y-83554761D01*
X97328571Y-83602380D01*
X97519047Y-83602380D01*
X97614285Y-83554761D01*
X97661904Y-83507142D01*
X97709523Y-83411904D01*
X97709523Y-82602380D01*
X98614285Y-82602380D02*
X98423809Y-82602380D01*
X98328571Y-82650000D01*
X98280952Y-82697619D01*
X98185714Y-82840476D01*
X98138095Y-83030952D01*
X98138095Y-83411904D01*
X98185714Y-83507142D01*
X98233333Y-83554761D01*
X98328571Y-83602380D01*
X98519047Y-83602380D01*
X98614285Y-83554761D01*
X98661904Y-83507142D01*
X98709523Y-83411904D01*
X98709523Y-83173809D01*
X98661904Y-83078571D01*
X98614285Y-83030952D01*
X98519047Y-82983333D01*
X98328571Y-82983333D01*
X98233333Y-83030952D01*
X98185714Y-83078571D01*
X98138095Y-83173809D01*
%TO.C,SW3*%
X178764761Y-94873333D02*
X178812380Y-94730476D01*
X178812380Y-94492380D01*
X178764761Y-94397142D01*
X178717142Y-94349523D01*
X178621904Y-94301904D01*
X178526666Y-94301904D01*
X178431428Y-94349523D01*
X178383809Y-94397142D01*
X178336190Y-94492380D01*
X178288571Y-94682857D01*
X178240952Y-94778095D01*
X178193333Y-94825714D01*
X178098095Y-94873333D01*
X178002857Y-94873333D01*
X177907619Y-94825714D01*
X177860000Y-94778095D01*
X177812380Y-94682857D01*
X177812380Y-94444761D01*
X177860000Y-94301904D01*
X177812380Y-93968571D02*
X178812380Y-93730476D01*
X178098095Y-93540000D01*
X178812380Y-93349523D01*
X177812380Y-93111428D01*
X177812380Y-92825714D02*
X177812380Y-92206666D01*
X178193333Y-92540000D01*
X178193333Y-92397142D01*
X178240952Y-92301904D01*
X178288571Y-92254285D01*
X178383809Y-92206666D01*
X178621904Y-92206666D01*
X178717142Y-92254285D01*
X178764761Y-92301904D01*
X178812380Y-92397142D01*
X178812380Y-92682857D01*
X178764761Y-92778095D01*
X178717142Y-92825714D01*
%TO.C,SW2*%
X178764761Y-76973333D02*
X178812380Y-76830476D01*
X178812380Y-76592380D01*
X178764761Y-76497142D01*
X178717142Y-76449523D01*
X178621904Y-76401904D01*
X178526666Y-76401904D01*
X178431428Y-76449523D01*
X178383809Y-76497142D01*
X178336190Y-76592380D01*
X178288571Y-76782857D01*
X178240952Y-76878095D01*
X178193333Y-76925714D01*
X178098095Y-76973333D01*
X178002857Y-76973333D01*
X177907619Y-76925714D01*
X177860000Y-76878095D01*
X177812380Y-76782857D01*
X177812380Y-76544761D01*
X177860000Y-76401904D01*
X177812380Y-76068571D02*
X178812380Y-75830476D01*
X178098095Y-75640000D01*
X178812380Y-75449523D01*
X177812380Y-75211428D01*
X177907619Y-74878095D02*
X177860000Y-74830476D01*
X177812380Y-74735238D01*
X177812380Y-74497142D01*
X177860000Y-74401904D01*
X177907619Y-74354285D01*
X178002857Y-74306666D01*
X178098095Y-74306666D01*
X178240952Y-74354285D01*
X178812380Y-74925714D01*
X178812380Y-74306666D01*
%TO.C,U2*%
X79638095Y-56152380D02*
X79638095Y-56961904D01*
X79685714Y-57057142D01*
X79733333Y-57104761D01*
X79828571Y-57152380D01*
X80019047Y-57152380D01*
X80114285Y-57104761D01*
X80161904Y-57057142D01*
X80209523Y-56961904D01*
X80209523Y-56152380D01*
X80638095Y-56247619D02*
X80685714Y-56200000D01*
X80780952Y-56152380D01*
X81019047Y-56152380D01*
X81114285Y-56200000D01*
X81161904Y-56247619D01*
X81209523Y-56342857D01*
X81209523Y-56438095D01*
X81161904Y-56580952D01*
X80590476Y-57152380D01*
X81209523Y-57152380D01*
%TO.C,R9*%
X161733333Y-89602380D02*
X161400000Y-89126190D01*
X161161904Y-89602380D02*
X161161904Y-88602380D01*
X161542857Y-88602380D01*
X161638095Y-88650000D01*
X161685714Y-88697619D01*
X161733333Y-88792857D01*
X161733333Y-88935714D01*
X161685714Y-89030952D01*
X161638095Y-89078571D01*
X161542857Y-89126190D01*
X161161904Y-89126190D01*
X162209523Y-89602380D02*
X162400000Y-89602380D01*
X162495238Y-89554761D01*
X162542857Y-89507142D01*
X162638095Y-89364285D01*
X162685714Y-89173809D01*
X162685714Y-88792857D01*
X162638095Y-88697619D01*
X162590476Y-88650000D01*
X162495238Y-88602380D01*
X162304761Y-88602380D01*
X162209523Y-88650000D01*
X162161904Y-88697619D01*
X162114285Y-88792857D01*
X162114285Y-89030952D01*
X162161904Y-89126190D01*
X162209523Y-89173809D01*
X162304761Y-89221428D01*
X162495238Y-89221428D01*
X162590476Y-89173809D01*
X162638095Y-89126190D01*
X162685714Y-89030952D01*
%TO.C,C5*%
X94077142Y-55166666D02*
X94124761Y-55214285D01*
X94172380Y-55357142D01*
X94172380Y-55452380D01*
X94124761Y-55595238D01*
X94029523Y-55690476D01*
X93934285Y-55738095D01*
X93743809Y-55785714D01*
X93600952Y-55785714D01*
X93410476Y-55738095D01*
X93315238Y-55690476D01*
X93220000Y-55595238D01*
X93172380Y-55452380D01*
X93172380Y-55357142D01*
X93220000Y-55214285D01*
X93267619Y-55166666D01*
X93172380Y-54261904D02*
X93172380Y-54738095D01*
X93648571Y-54785714D01*
X93600952Y-54738095D01*
X93553333Y-54642857D01*
X93553333Y-54404761D01*
X93600952Y-54309523D01*
X93648571Y-54261904D01*
X93743809Y-54214285D01*
X93981904Y-54214285D01*
X94077142Y-54261904D01*
X94124761Y-54309523D01*
X94172380Y-54404761D01*
X94172380Y-54642857D01*
X94124761Y-54738095D01*
X94077142Y-54785714D01*
%TO.C,L1*%
X86552380Y-63366666D02*
X86552380Y-63842857D01*
X85552380Y-63842857D01*
X86552380Y-62509523D02*
X86552380Y-63080952D01*
X86552380Y-62795238D02*
X85552380Y-62795238D01*
X85695238Y-62890476D01*
X85790476Y-62985714D01*
X85838095Y-63080952D01*
%TO.C,R19*%
X147102380Y-86042857D02*
X146626190Y-86376190D01*
X147102380Y-86614285D02*
X146102380Y-86614285D01*
X146102380Y-86233333D01*
X146150000Y-86138095D01*
X146197619Y-86090476D01*
X146292857Y-86042857D01*
X146435714Y-86042857D01*
X146530952Y-86090476D01*
X146578571Y-86138095D01*
X146626190Y-86233333D01*
X146626190Y-86614285D01*
X147102380Y-85090476D02*
X147102380Y-85661904D01*
X147102380Y-85376190D02*
X146102380Y-85376190D01*
X146245238Y-85471428D01*
X146340476Y-85566666D01*
X146388095Y-85661904D01*
X147102380Y-84614285D02*
X147102380Y-84423809D01*
X147054761Y-84328571D01*
X147007142Y-84280952D01*
X146864285Y-84185714D01*
X146673809Y-84138095D01*
X146292857Y-84138095D01*
X146197619Y-84185714D01*
X146150000Y-84233333D01*
X146102380Y-84328571D01*
X146102380Y-84519047D01*
X146150000Y-84614285D01*
X146197619Y-84661904D01*
X146292857Y-84709523D01*
X146530952Y-84709523D01*
X146626190Y-84661904D01*
X146673809Y-84614285D01*
X146721428Y-84519047D01*
X146721428Y-84328571D01*
X146673809Y-84233333D01*
X146626190Y-84185714D01*
X146530952Y-84138095D01*
%TO.C,C7*%
X86107142Y-84566666D02*
X86154761Y-84614285D01*
X86202380Y-84757142D01*
X86202380Y-84852380D01*
X86154761Y-84995238D01*
X86059523Y-85090476D01*
X85964285Y-85138095D01*
X85773809Y-85185714D01*
X85630952Y-85185714D01*
X85440476Y-85138095D01*
X85345238Y-85090476D01*
X85250000Y-84995238D01*
X85202380Y-84852380D01*
X85202380Y-84757142D01*
X85250000Y-84614285D01*
X85297619Y-84566666D01*
X85202380Y-84233333D02*
X85202380Y-83566666D01*
X86202380Y-83995238D01*
%TO.C,R6*%
X161333333Y-80802380D02*
X161000000Y-80326190D01*
X160761904Y-80802380D02*
X160761904Y-79802380D01*
X161142857Y-79802380D01*
X161238095Y-79850000D01*
X161285714Y-79897619D01*
X161333333Y-79992857D01*
X161333333Y-80135714D01*
X161285714Y-80230952D01*
X161238095Y-80278571D01*
X161142857Y-80326190D01*
X160761904Y-80326190D01*
X162190476Y-79802380D02*
X162000000Y-79802380D01*
X161904761Y-79850000D01*
X161857142Y-79897619D01*
X161761904Y-80040476D01*
X161714285Y-80230952D01*
X161714285Y-80611904D01*
X161761904Y-80707142D01*
X161809523Y-80754761D01*
X161904761Y-80802380D01*
X162095238Y-80802380D01*
X162190476Y-80754761D01*
X162238095Y-80707142D01*
X162285714Y-80611904D01*
X162285714Y-80373809D01*
X162238095Y-80278571D01*
X162190476Y-80230952D01*
X162095238Y-80183333D01*
X161904761Y-80183333D01*
X161809523Y-80230952D01*
X161761904Y-80278571D01*
X161714285Y-80373809D01*
%TO.C,C20*%
X82357142Y-90977142D02*
X82309523Y-91024761D01*
X82166666Y-91072380D01*
X82071428Y-91072380D01*
X81928571Y-91024761D01*
X81833333Y-90929523D01*
X81785714Y-90834285D01*
X81738095Y-90643809D01*
X81738095Y-90500952D01*
X81785714Y-90310476D01*
X81833333Y-90215238D01*
X81928571Y-90120000D01*
X82071428Y-90072380D01*
X82166666Y-90072380D01*
X82309523Y-90120000D01*
X82357142Y-90167619D01*
X82738095Y-90167619D02*
X82785714Y-90120000D01*
X82880952Y-90072380D01*
X83119047Y-90072380D01*
X83214285Y-90120000D01*
X83261904Y-90167619D01*
X83309523Y-90262857D01*
X83309523Y-90358095D01*
X83261904Y-90500952D01*
X82690476Y-91072380D01*
X83309523Y-91072380D01*
X83928571Y-90072380D02*
X84023809Y-90072380D01*
X84119047Y-90120000D01*
X84166666Y-90167619D01*
X84214285Y-90262857D01*
X84261904Y-90453333D01*
X84261904Y-90691428D01*
X84214285Y-90881904D01*
X84166666Y-90977142D01*
X84119047Y-91024761D01*
X84023809Y-91072380D01*
X83928571Y-91072380D01*
X83833333Y-91024761D01*
X83785714Y-90977142D01*
X83738095Y-90881904D01*
X83690476Y-90691428D01*
X83690476Y-90453333D01*
X83738095Y-90262857D01*
X83785714Y-90167619D01*
X83833333Y-90120000D01*
X83928571Y-90072380D01*
%TO.C,U7*%
X141262380Y-69331904D02*
X142071904Y-69331904D01*
X142167142Y-69284285D01*
X142214761Y-69236666D01*
X142262380Y-69141428D01*
X142262380Y-68950952D01*
X142214761Y-68855714D01*
X142167142Y-68808095D01*
X142071904Y-68760476D01*
X141262380Y-68760476D01*
X141262380Y-68379523D02*
X141262380Y-67712857D01*
X142262380Y-68141428D01*
%TO.C,+3.3*%
X68528571Y-43123428D02*
X69290476Y-43123428D01*
X68909523Y-43504380D02*
X68909523Y-42742476D01*
X69671428Y-42504380D02*
X70290476Y-42504380D01*
X69957142Y-42885333D01*
X70100000Y-42885333D01*
X70195238Y-42932952D01*
X70242857Y-42980571D01*
X70290476Y-43075809D01*
X70290476Y-43313904D01*
X70242857Y-43409142D01*
X70195238Y-43456761D01*
X70100000Y-43504380D01*
X69814285Y-43504380D01*
X69719047Y-43456761D01*
X69671428Y-43409142D01*
X70719047Y-43409142D02*
X70766666Y-43456761D01*
X70719047Y-43504380D01*
X70671428Y-43456761D01*
X70719047Y-43409142D01*
X70719047Y-43504380D01*
X71100000Y-42504380D02*
X71719047Y-42504380D01*
X71385714Y-42885333D01*
X71528571Y-42885333D01*
X71623809Y-42932952D01*
X71671428Y-42980571D01*
X71719047Y-43075809D01*
X71719047Y-43313904D01*
X71671428Y-43409142D01*
X71623809Y-43456761D01*
X71528571Y-43504380D01*
X71242857Y-43504380D01*
X71147619Y-43456761D01*
X71100000Y-43409142D01*
%TO.C,R18*%
X143857142Y-82002380D02*
X143523809Y-81526190D01*
X143285714Y-82002380D02*
X143285714Y-81002380D01*
X143666666Y-81002380D01*
X143761904Y-81050000D01*
X143809523Y-81097619D01*
X143857142Y-81192857D01*
X143857142Y-81335714D01*
X143809523Y-81430952D01*
X143761904Y-81478571D01*
X143666666Y-81526190D01*
X143285714Y-81526190D01*
X144809523Y-82002380D02*
X144238095Y-82002380D01*
X144523809Y-82002380D02*
X144523809Y-81002380D01*
X144428571Y-81145238D01*
X144333333Y-81240476D01*
X144238095Y-81288095D01*
X145380952Y-81430952D02*
X145285714Y-81383333D01*
X145238095Y-81335714D01*
X145190476Y-81240476D01*
X145190476Y-81192857D01*
X145238095Y-81097619D01*
X145285714Y-81050000D01*
X145380952Y-81002380D01*
X145571428Y-81002380D01*
X145666666Y-81050000D01*
X145714285Y-81097619D01*
X145761904Y-81192857D01*
X145761904Y-81240476D01*
X145714285Y-81335714D01*
X145666666Y-81383333D01*
X145571428Y-81430952D01*
X145380952Y-81430952D01*
X145285714Y-81478571D01*
X145238095Y-81526190D01*
X145190476Y-81621428D01*
X145190476Y-81811904D01*
X145238095Y-81907142D01*
X145285714Y-81954761D01*
X145380952Y-82002380D01*
X145571428Y-82002380D01*
X145666666Y-81954761D01*
X145714285Y-81907142D01*
X145761904Y-81811904D01*
X145761904Y-81621428D01*
X145714285Y-81526190D01*
X145666666Y-81478571D01*
X145571428Y-81430952D01*
%TO.C,C14*%
X111257142Y-65237142D02*
X111209523Y-65284761D01*
X111066666Y-65332380D01*
X110971428Y-65332380D01*
X110828571Y-65284761D01*
X110733333Y-65189523D01*
X110685714Y-65094285D01*
X110638095Y-64903809D01*
X110638095Y-64760952D01*
X110685714Y-64570476D01*
X110733333Y-64475238D01*
X110828571Y-64380000D01*
X110971428Y-64332380D01*
X111066666Y-64332380D01*
X111209523Y-64380000D01*
X111257142Y-64427619D01*
X112209523Y-65332380D02*
X111638095Y-65332380D01*
X111923809Y-65332380D02*
X111923809Y-64332380D01*
X111828571Y-64475238D01*
X111733333Y-64570476D01*
X111638095Y-64618095D01*
X113066666Y-64665714D02*
X113066666Y-65332380D01*
X112828571Y-64284761D02*
X112590476Y-64999047D01*
X113209523Y-64999047D01*
%TO.C,C11*%
X159237142Y-60042857D02*
X159284761Y-60090476D01*
X159332380Y-60233333D01*
X159332380Y-60328571D01*
X159284761Y-60471428D01*
X159189523Y-60566666D01*
X159094285Y-60614285D01*
X158903809Y-60661904D01*
X158760952Y-60661904D01*
X158570476Y-60614285D01*
X158475238Y-60566666D01*
X158380000Y-60471428D01*
X158332380Y-60328571D01*
X158332380Y-60233333D01*
X158380000Y-60090476D01*
X158427619Y-60042857D01*
X159332380Y-59090476D02*
X159332380Y-59661904D01*
X159332380Y-59376190D02*
X158332380Y-59376190D01*
X158475238Y-59471428D01*
X158570476Y-59566666D01*
X158618095Y-59661904D01*
X159332380Y-58138095D02*
X159332380Y-58709523D01*
X159332380Y-58423809D02*
X158332380Y-58423809D01*
X158475238Y-58519047D01*
X158570476Y-58614285D01*
X158618095Y-58709523D01*
%TO.C,J4*%
X66666666Y-74792380D02*
X66666666Y-75506666D01*
X66619047Y-75649523D01*
X66523809Y-75744761D01*
X66380952Y-75792380D01*
X66285714Y-75792380D01*
X67571428Y-75125714D02*
X67571428Y-75792380D01*
X67333333Y-74744761D02*
X67095238Y-75459047D01*
X67714285Y-75459047D01*
%TO.C,R21*%
X149602380Y-69342857D02*
X149126190Y-69676190D01*
X149602380Y-69914285D02*
X148602380Y-69914285D01*
X148602380Y-69533333D01*
X148650000Y-69438095D01*
X148697619Y-69390476D01*
X148792857Y-69342857D01*
X148935714Y-69342857D01*
X149030952Y-69390476D01*
X149078571Y-69438095D01*
X149126190Y-69533333D01*
X149126190Y-69914285D01*
X148697619Y-68961904D02*
X148650000Y-68914285D01*
X148602380Y-68819047D01*
X148602380Y-68580952D01*
X148650000Y-68485714D01*
X148697619Y-68438095D01*
X148792857Y-68390476D01*
X148888095Y-68390476D01*
X149030952Y-68438095D01*
X149602380Y-69009523D01*
X149602380Y-68390476D01*
X149602380Y-67438095D02*
X149602380Y-68009523D01*
X149602380Y-67723809D02*
X148602380Y-67723809D01*
X148745238Y-67819047D01*
X148840476Y-67914285D01*
X148888095Y-68009523D01*
%TO.C,C21*%
X145737142Y-84542857D02*
X145784761Y-84590476D01*
X145832380Y-84733333D01*
X145832380Y-84828571D01*
X145784761Y-84971428D01*
X145689523Y-85066666D01*
X145594285Y-85114285D01*
X145403809Y-85161904D01*
X145260952Y-85161904D01*
X145070476Y-85114285D01*
X144975238Y-85066666D01*
X144880000Y-84971428D01*
X144832380Y-84828571D01*
X144832380Y-84733333D01*
X144880000Y-84590476D01*
X144927619Y-84542857D01*
X144927619Y-84161904D02*
X144880000Y-84114285D01*
X144832380Y-84019047D01*
X144832380Y-83780952D01*
X144880000Y-83685714D01*
X144927619Y-83638095D01*
X145022857Y-83590476D01*
X145118095Y-83590476D01*
X145260952Y-83638095D01*
X145832380Y-84209523D01*
X145832380Y-83590476D01*
X145832380Y-82638095D02*
X145832380Y-83209523D01*
X145832380Y-82923809D02*
X144832380Y-82923809D01*
X144975238Y-83019047D01*
X145070476Y-83114285D01*
X145118095Y-83209523D01*
%TO.C,R11*%
X115002380Y-59542857D02*
X114526190Y-59876190D01*
X115002380Y-60114285D02*
X114002380Y-60114285D01*
X114002380Y-59733333D01*
X114050000Y-59638095D01*
X114097619Y-59590476D01*
X114192857Y-59542857D01*
X114335714Y-59542857D01*
X114430952Y-59590476D01*
X114478571Y-59638095D01*
X114526190Y-59733333D01*
X114526190Y-60114285D01*
X115002380Y-58590476D02*
X115002380Y-59161904D01*
X115002380Y-58876190D02*
X114002380Y-58876190D01*
X114145238Y-58971428D01*
X114240476Y-59066666D01*
X114288095Y-59161904D01*
X115002380Y-57638095D02*
X115002380Y-58209523D01*
X115002380Y-57923809D02*
X114002380Y-57923809D01*
X114145238Y-58019047D01*
X114240476Y-58114285D01*
X114288095Y-58209523D01*
%TO.C,C8*%
X87033333Y-66327142D02*
X86985714Y-66374761D01*
X86842857Y-66422380D01*
X86747619Y-66422380D01*
X86604761Y-66374761D01*
X86509523Y-66279523D01*
X86461904Y-66184285D01*
X86414285Y-65993809D01*
X86414285Y-65850952D01*
X86461904Y-65660476D01*
X86509523Y-65565238D01*
X86604761Y-65470000D01*
X86747619Y-65422380D01*
X86842857Y-65422380D01*
X86985714Y-65470000D01*
X87033333Y-65517619D01*
X87604761Y-65850952D02*
X87509523Y-65803333D01*
X87461904Y-65755714D01*
X87414285Y-65660476D01*
X87414285Y-65612857D01*
X87461904Y-65517619D01*
X87509523Y-65470000D01*
X87604761Y-65422380D01*
X87795238Y-65422380D01*
X87890476Y-65470000D01*
X87938095Y-65517619D01*
X87985714Y-65612857D01*
X87985714Y-65660476D01*
X87938095Y-65755714D01*
X87890476Y-65803333D01*
X87795238Y-65850952D01*
X87604761Y-65850952D01*
X87509523Y-65898571D01*
X87461904Y-65946190D01*
X87414285Y-66041428D01*
X87414285Y-66231904D01*
X87461904Y-66327142D01*
X87509523Y-66374761D01*
X87604761Y-66422380D01*
X87795238Y-66422380D01*
X87890476Y-66374761D01*
X87938095Y-66327142D01*
X87985714Y-66231904D01*
X87985714Y-66041428D01*
X87938095Y-65946190D01*
X87890476Y-65898571D01*
X87795238Y-65850952D01*
%TO.C,C13*%
X159437142Y-95342857D02*
X159484761Y-95390476D01*
X159532380Y-95533333D01*
X159532380Y-95628571D01*
X159484761Y-95771428D01*
X159389523Y-95866666D01*
X159294285Y-95914285D01*
X159103809Y-95961904D01*
X158960952Y-95961904D01*
X158770476Y-95914285D01*
X158675238Y-95866666D01*
X158580000Y-95771428D01*
X158532380Y-95628571D01*
X158532380Y-95533333D01*
X158580000Y-95390476D01*
X158627619Y-95342857D01*
X159532380Y-94390476D02*
X159532380Y-94961904D01*
X159532380Y-94676190D02*
X158532380Y-94676190D01*
X158675238Y-94771428D01*
X158770476Y-94866666D01*
X158818095Y-94961904D01*
X158532380Y-94057142D02*
X158532380Y-93438095D01*
X158913333Y-93771428D01*
X158913333Y-93628571D01*
X158960952Y-93533333D01*
X159008571Y-93485714D01*
X159103809Y-93438095D01*
X159341904Y-93438095D01*
X159437142Y-93485714D01*
X159484761Y-93533333D01*
X159532380Y-93628571D01*
X159532380Y-93914285D01*
X159484761Y-94009523D01*
X159437142Y-94057142D01*
%TO.C,J6*%
X76462380Y-99813333D02*
X77176666Y-99813333D01*
X77319523Y-99860952D01*
X77414761Y-99956190D01*
X77462380Y-100099047D01*
X77462380Y-100194285D01*
X76462380Y-98908571D02*
X76462380Y-99099047D01*
X76510000Y-99194285D01*
X76557619Y-99241904D01*
X76700476Y-99337142D01*
X76890952Y-99384761D01*
X77271904Y-99384761D01*
X77367142Y-99337142D01*
X77414761Y-99289523D01*
X77462380Y-99194285D01*
X77462380Y-99003809D01*
X77414761Y-98908571D01*
X77367142Y-98860952D01*
X77271904Y-98813333D01*
X77033809Y-98813333D01*
X76938571Y-98860952D01*
X76890952Y-98908571D01*
X76843333Y-99003809D01*
X76843333Y-99194285D01*
X76890952Y-99289523D01*
X76938571Y-99337142D01*
X77033809Y-99384761D01*
%TO.C,R16*%
X90157142Y-105802380D02*
X89823809Y-105326190D01*
X89585714Y-105802380D02*
X89585714Y-104802380D01*
X89966666Y-104802380D01*
X90061904Y-104850000D01*
X90109523Y-104897619D01*
X90157142Y-104992857D01*
X90157142Y-105135714D01*
X90109523Y-105230952D01*
X90061904Y-105278571D01*
X89966666Y-105326190D01*
X89585714Y-105326190D01*
X91109523Y-105802380D02*
X90538095Y-105802380D01*
X90823809Y-105802380D02*
X90823809Y-104802380D01*
X90728571Y-104945238D01*
X90633333Y-105040476D01*
X90538095Y-105088095D01*
X91966666Y-104802380D02*
X91776190Y-104802380D01*
X91680952Y-104850000D01*
X91633333Y-104897619D01*
X91538095Y-105040476D01*
X91490476Y-105230952D01*
X91490476Y-105611904D01*
X91538095Y-105707142D01*
X91585714Y-105754761D01*
X91680952Y-105802380D01*
X91871428Y-105802380D01*
X91966666Y-105754761D01*
X92014285Y-105707142D01*
X92061904Y-105611904D01*
X92061904Y-105373809D01*
X92014285Y-105278571D01*
X91966666Y-105230952D01*
X91871428Y-105183333D01*
X91680952Y-105183333D01*
X91585714Y-105230952D01*
X91538095Y-105278571D01*
X91490476Y-105373809D01*
%TO.C,R15*%
X104102380Y-96542857D02*
X103626190Y-96876190D01*
X104102380Y-97114285D02*
X103102380Y-97114285D01*
X103102380Y-96733333D01*
X103150000Y-96638095D01*
X103197619Y-96590476D01*
X103292857Y-96542857D01*
X103435714Y-96542857D01*
X103530952Y-96590476D01*
X103578571Y-96638095D01*
X103626190Y-96733333D01*
X103626190Y-97114285D01*
X104102380Y-95590476D02*
X104102380Y-96161904D01*
X104102380Y-95876190D02*
X103102380Y-95876190D01*
X103245238Y-95971428D01*
X103340476Y-96066666D01*
X103388095Y-96161904D01*
X103102380Y-94685714D02*
X103102380Y-95161904D01*
X103578571Y-95209523D01*
X103530952Y-95161904D01*
X103483333Y-95066666D01*
X103483333Y-94828571D01*
X103530952Y-94733333D01*
X103578571Y-94685714D01*
X103673809Y-94638095D01*
X103911904Y-94638095D01*
X104007142Y-94685714D01*
X104054761Y-94733333D01*
X104102380Y-94828571D01*
X104102380Y-95066666D01*
X104054761Y-95161904D01*
X104007142Y-95209523D01*
%TO.C,GND*%
X76238095Y-42552000D02*
X76142857Y-42504380D01*
X76000000Y-42504380D01*
X75857142Y-42552000D01*
X75761904Y-42647238D01*
X75714285Y-42742476D01*
X75666666Y-42932952D01*
X75666666Y-43075809D01*
X75714285Y-43266285D01*
X75761904Y-43361523D01*
X75857142Y-43456761D01*
X76000000Y-43504380D01*
X76095238Y-43504380D01*
X76238095Y-43456761D01*
X76285714Y-43409142D01*
X76285714Y-43075809D01*
X76095238Y-43075809D01*
X76714285Y-43504380D02*
X76714285Y-42504380D01*
X77285714Y-43504380D01*
X77285714Y-42504380D01*
X77761904Y-43504380D02*
X77761904Y-42504380D01*
X78000000Y-42504380D01*
X78142857Y-42552000D01*
X78238095Y-42647238D01*
X78285714Y-42742476D01*
X78333333Y-42932952D01*
X78333333Y-43075809D01*
X78285714Y-43266285D01*
X78238095Y-43361523D01*
X78142857Y-43456761D01*
X78000000Y-43504380D01*
X77761904Y-43504380D01*
%TO.C,Q1*%
X108147619Y-69595238D02*
X108100000Y-69690476D01*
X108004761Y-69785714D01*
X107861904Y-69928571D01*
X107814285Y-70023809D01*
X107814285Y-70119047D01*
X108052380Y-70071428D02*
X108004761Y-70166666D01*
X107909523Y-70261904D01*
X107719047Y-70309523D01*
X107385714Y-70309523D01*
X107195238Y-70261904D01*
X107100000Y-70166666D01*
X107052380Y-70071428D01*
X107052380Y-69880952D01*
X107100000Y-69785714D01*
X107195238Y-69690476D01*
X107385714Y-69642857D01*
X107719047Y-69642857D01*
X107909523Y-69690476D01*
X108004761Y-69785714D01*
X108052380Y-69880952D01*
X108052380Y-70071428D01*
X108052380Y-68690476D02*
X108052380Y-69261904D01*
X108052380Y-68976190D02*
X107052380Y-68976190D01*
X107195238Y-69071428D01*
X107290476Y-69166666D01*
X107338095Y-69261904D01*
%TO.C,Q2*%
X99607619Y-99065238D02*
X99560000Y-99160476D01*
X99464761Y-99255714D01*
X99321904Y-99398571D01*
X99274285Y-99493809D01*
X99274285Y-99589047D01*
X99512380Y-99541428D02*
X99464761Y-99636666D01*
X99369523Y-99731904D01*
X99179047Y-99779523D01*
X98845714Y-99779523D01*
X98655238Y-99731904D01*
X98560000Y-99636666D01*
X98512380Y-99541428D01*
X98512380Y-99350952D01*
X98560000Y-99255714D01*
X98655238Y-99160476D01*
X98845714Y-99112857D01*
X99179047Y-99112857D01*
X99369523Y-99160476D01*
X99464761Y-99255714D01*
X99512380Y-99350952D01*
X99512380Y-99541428D01*
X98607619Y-98731904D02*
X98560000Y-98684285D01*
X98512380Y-98589047D01*
X98512380Y-98350952D01*
X98560000Y-98255714D01*
X98607619Y-98208095D01*
X98702857Y-98160476D01*
X98798095Y-98160476D01*
X98940952Y-98208095D01*
X99512380Y-98779523D01*
X99512380Y-98160476D01*
%TO.C,U4*%
X106952380Y-76461904D02*
X107761904Y-76461904D01*
X107857142Y-76414285D01*
X107904761Y-76366666D01*
X107952380Y-76271428D01*
X107952380Y-76080952D01*
X107904761Y-75985714D01*
X107857142Y-75938095D01*
X107761904Y-75890476D01*
X106952380Y-75890476D01*
X107285714Y-74985714D02*
X107952380Y-74985714D01*
X106904761Y-75223809D02*
X107619047Y-75461904D01*
X107619047Y-74842857D01*
%TO.C,R5*%
X161433333Y-63102380D02*
X161100000Y-62626190D01*
X160861904Y-63102380D02*
X160861904Y-62102380D01*
X161242857Y-62102380D01*
X161338095Y-62150000D01*
X161385714Y-62197619D01*
X161433333Y-62292857D01*
X161433333Y-62435714D01*
X161385714Y-62530952D01*
X161338095Y-62578571D01*
X161242857Y-62626190D01*
X160861904Y-62626190D01*
X162338095Y-62102380D02*
X161861904Y-62102380D01*
X161814285Y-62578571D01*
X161861904Y-62530952D01*
X161957142Y-62483333D01*
X162195238Y-62483333D01*
X162290476Y-62530952D01*
X162338095Y-62578571D01*
X162385714Y-62673809D01*
X162385714Y-62911904D01*
X162338095Y-63007142D01*
X162290476Y-63054761D01*
X162195238Y-63102380D01*
X161957142Y-63102380D01*
X161861904Y-63054761D01*
X161814285Y-63007142D01*
%TO.C,R14*%
X108302380Y-55542857D02*
X107826190Y-55876190D01*
X108302380Y-56114285D02*
X107302380Y-56114285D01*
X107302380Y-55733333D01*
X107350000Y-55638095D01*
X107397619Y-55590476D01*
X107492857Y-55542857D01*
X107635714Y-55542857D01*
X107730952Y-55590476D01*
X107778571Y-55638095D01*
X107826190Y-55733333D01*
X107826190Y-56114285D01*
X108302380Y-54590476D02*
X108302380Y-55161904D01*
X108302380Y-54876190D02*
X107302380Y-54876190D01*
X107445238Y-54971428D01*
X107540476Y-55066666D01*
X107588095Y-55161904D01*
X107635714Y-53733333D02*
X108302380Y-53733333D01*
X107254761Y-53971428D02*
X107969047Y-54209523D01*
X107969047Y-53590476D01*
D11*
%TO.C,R8*%
X161372936Y-70335000D02*
X161827064Y-70335000D01*
X161372936Y-68865000D02*
X161827064Y-68865000D01*
%TO.C,C1*%
X86835000Y-55261252D02*
X86835000Y-54738748D01*
X85365000Y-55261252D02*
X85365000Y-54738748D01*
%TO.C,U5*%
X86700000Y-100060000D02*
X88650000Y-100060000D01*
X86700000Y-100060000D02*
X84750000Y-100060000D01*
X86700000Y-94940000D02*
X88650000Y-94940000D01*
X86700000Y-94940000D02*
X83250000Y-94940000D01*
%TO.C,J3*%
X65940000Y-86900000D02*
X65940000Y-92960000D01*
X68060000Y-86900000D02*
X68060000Y-92960000D01*
X65940000Y-92960000D02*
X68060000Y-92960000D01*
X65940000Y-84840000D02*
X67000000Y-84840000D01*
X65940000Y-85900000D02*
X65940000Y-84840000D01*
X65940000Y-86900000D02*
X68060000Y-86900000D01*
%TO.C,C3*%
X89738748Y-76435000D02*
X90261252Y-76435000D01*
X89738748Y-74965000D02*
X90261252Y-74965000D01*
%TO.C,R12*%
X111535000Y-54672936D02*
X111535000Y-55127064D01*
X110065000Y-54672936D02*
X110065000Y-55127064D01*
%TO.C,C22*%
X149035000Y-90161252D02*
X149035000Y-89638748D01*
X147565000Y-90161252D02*
X147565000Y-89638748D01*
%TO.C,J1*%
X74105000Y-49820000D02*
X74105000Y-51725000D01*
X65480000Y-56600000D02*
X65480000Y-55000000D01*
X75110000Y-55800000D02*
X74110000Y-55800000D01*
X74110000Y-51840000D02*
X75110000Y-51840000D01*
X74105000Y-51725000D02*
X75110000Y-51725000D01*
X72440000Y-51840000D02*
X74110000Y-51840000D01*
X64880000Y-57820000D02*
X64880000Y-49820000D01*
X74110000Y-55800000D02*
X74110000Y-51840000D01*
X75110000Y-51725000D02*
X75110000Y-55915000D01*
X68100000Y-58110000D02*
X72100000Y-58110000D01*
X74110000Y-55800000D02*
X72440000Y-55800000D01*
X64880000Y-49820000D02*
X74105000Y-49820000D01*
X74105000Y-55915000D02*
X74105000Y-57820000D01*
X65480000Y-51040000D02*
X64880000Y-51040000D01*
X64880000Y-52640000D02*
X65480000Y-52640000D01*
X65480000Y-52640000D02*
X65480000Y-51040000D01*
X74105000Y-57820000D02*
X64880000Y-57820000D01*
X65480000Y-55000000D02*
X64880000Y-55000000D01*
X75110000Y-55915000D02*
X74105000Y-55915000D01*
X72440000Y-55800000D02*
X72440000Y-51840000D01*
X64880000Y-56600000D02*
X65480000Y-56600000D01*
%TO.C,C9*%
X95235000Y-62138748D02*
X95235000Y-62661252D01*
X93765000Y-62138748D02*
X93765000Y-62661252D01*
%TO.C,J2*%
X105740000Y-52360000D02*
X105740000Y-51300000D01*
X107800000Y-52360000D02*
X113860000Y-52360000D01*
X107800000Y-52360000D02*
X107800000Y-50240000D01*
X106800000Y-52360000D02*
X105740000Y-52360000D01*
X107800000Y-50240000D02*
X113860000Y-50240000D01*
X113860000Y-52360000D02*
X113860000Y-50240000D01*
%TO.C,R17*%
X116735000Y-87327064D02*
X116735000Y-86872936D01*
X115265000Y-87327064D02*
X115265000Y-86872936D01*
%TO.C,C10*%
X98365000Y-62138748D02*
X98365000Y-62661252D01*
X99835000Y-62138748D02*
X99835000Y-62661252D01*
%TO.C,D1*%
X159600000Y-74950000D02*
X162750000Y-74950000D01*
X159600000Y-74950000D02*
X159600000Y-76650000D01*
X159600000Y-76650000D02*
X162750000Y-76650000D01*
%TO.C,R4*%
X89472936Y-63465000D02*
X89927064Y-63465000D01*
X89472936Y-64935000D02*
X89927064Y-64935000D01*
%TO.C,D4*%
X111520000Y-99020000D02*
X111520000Y-96780000D01*
X111520000Y-96780000D02*
X107280000Y-96780000D01*
X110920000Y-99020000D02*
X110920000Y-96780000D01*
X107280000Y-99020000D02*
X111520000Y-99020000D01*
X106630000Y-97900000D02*
X107280000Y-97900000D01*
X107280000Y-96780000D02*
X107280000Y-99020000D01*
X110800000Y-99020000D02*
X110800000Y-96780000D01*
X110680000Y-99020000D02*
X110680000Y-96780000D01*
X112170000Y-97900000D02*
X111520000Y-97900000D01*
%TO.C,R1*%
X87772936Y-81135000D02*
X88227064Y-81135000D01*
X87772936Y-79665000D02*
X88227064Y-79665000D01*
%TO.C,C15*%
X109638748Y-75065000D02*
X110161252Y-75065000D01*
X109638748Y-76535000D02*
X110161252Y-76535000D01*
%TO.C,R2*%
X89672936Y-71635000D02*
X90127064Y-71635000D01*
X89672936Y-70165000D02*
X90127064Y-70165000D01*
%TO.C,C2*%
X70640000Y-68660000D02*
X70640000Y-67460000D01*
X75900000Y-67960000D02*
X75400000Y-67960000D01*
X75160000Y-65204437D02*
X74095563Y-64140000D01*
X75160000Y-65204437D02*
X75160000Y-65340000D01*
X75160000Y-67595563D02*
X75160000Y-67460000D01*
X75160000Y-67595563D02*
X74095563Y-68660000D01*
X74095563Y-68660000D02*
X70640000Y-68660000D01*
X75650000Y-68210000D02*
X75650000Y-67710000D01*
X70640000Y-64140000D02*
X70640000Y-65340000D01*
X74095563Y-64140000D02*
X70640000Y-64140000D01*
%TO.C,R13*%
X105072936Y-60235000D02*
X105527064Y-60235000D01*
X105072936Y-58765000D02*
X105527064Y-58765000D01*
%TO.C,D2*%
X159900000Y-92850000D02*
X163050000Y-92850000D01*
X159900000Y-94550000D02*
X163050000Y-94550000D01*
X159900000Y-92850000D02*
X159900000Y-94550000D01*
%TO.C,SW1*%
X169630000Y-51860000D02*
X172770000Y-51860000D01*
X165050000Y-64160000D02*
X165050000Y-51860000D01*
X172770000Y-64160000D02*
X169630000Y-64160000D01*
X167770000Y-64160000D02*
X165050000Y-64160000D01*
X165050000Y-51860000D02*
X167770000Y-51860000D01*
X177350000Y-64160000D02*
X174630000Y-64160000D01*
X174630000Y-51860000D02*
X177350000Y-51860000D01*
X177350000Y-51860000D02*
X177350000Y-64160000D01*
X175739050Y-58110000D02*
G75*
G03*
X175739050Y-58110000I-4579050J0D01*
G01*
%TO.C,D3*%
X159700000Y-57450000D02*
X159700000Y-59150000D01*
X159700000Y-57450000D02*
X162850000Y-57450000D01*
X159700000Y-59150000D02*
X162850000Y-59150000D01*
%TO.C,J7*%
X68060000Y-70900000D02*
X65940000Y-70900000D01*
X65940000Y-70900000D02*
X65940000Y-64840000D01*
X68060000Y-64840000D02*
X65940000Y-64840000D01*
X68060000Y-71900000D02*
X68060000Y-72960000D01*
X68060000Y-72960000D02*
X67000000Y-72960000D01*
X68060000Y-70900000D02*
X68060000Y-64840000D01*
%TO.C,C17*%
X102261252Y-50565000D02*
X101738748Y-50565000D01*
X102261252Y-52035000D02*
X101738748Y-52035000D01*
%TO.C,C23*%
X153735000Y-90161252D02*
X153735000Y-89638748D01*
X152265000Y-90161252D02*
X152265000Y-89638748D01*
%TO.C,C18*%
X101265000Y-99738748D02*
X101265000Y-100261252D01*
X102735000Y-99738748D02*
X102735000Y-100261252D01*
%TO.C,C12*%
X157735000Y-76438748D02*
X157735000Y-76961252D01*
X156265000Y-76438748D02*
X156265000Y-76961252D01*
%TO.C,+5V*%
X75150000Y-78250000D02*
X73250000Y-78250000D01*
X73250000Y-76350000D02*
X75150000Y-76350000D01*
X75150000Y-76350000D02*
X75150000Y-78250000D01*
X73250000Y-78250000D02*
X73250000Y-76350000D01*
%TO.C,U1*%
X78090000Y-72250000D02*
X78090000Y-76010000D01*
X84910000Y-70000000D02*
X84910000Y-76010000D01*
X84910000Y-76010000D02*
X83650000Y-76010000D01*
X78090000Y-76010000D02*
X79350000Y-76010000D01*
%TO.C,R20*%
X152472936Y-83765000D02*
X152927064Y-83765000D01*
X152472936Y-85235000D02*
X152927064Y-85235000D01*
%TO.C,R7*%
X161672936Y-100635000D02*
X162127064Y-100635000D01*
X161672936Y-99165000D02*
X162127064Y-99165000D01*
%TO.C,R10*%
X161827064Y-52535000D02*
X161372936Y-52535000D01*
X161827064Y-51065000D02*
X161372936Y-51065000D01*
%TO.C,C16*%
X102461252Y-67135000D02*
X101938748Y-67135000D01*
X102461252Y-65665000D02*
X101938748Y-65665000D01*
%TO.C,J5*%
X135000000Y-50840000D02*
X135000000Y-52960000D01*
X137060000Y-50840000D02*
X137060000Y-51900000D01*
X136000000Y-50840000D02*
X137060000Y-50840000D01*
X135000000Y-52960000D02*
X124940000Y-52960000D01*
X124940000Y-50840000D02*
X124940000Y-52960000D01*
X135000000Y-50840000D02*
X124940000Y-50840000D01*
%TO.C,C4*%
X91435000Y-55261252D02*
X91435000Y-54738748D01*
X89965000Y-55261252D02*
X89965000Y-54738748D01*
%TO.C,C19*%
X83038748Y-102965000D02*
X83561252Y-102965000D01*
X83038748Y-104435000D02*
X83561252Y-104435000D01*
%TO.C,R3*%
X89927064Y-59865000D02*
X89472936Y-59865000D01*
X89927064Y-61335000D02*
X89472936Y-61335000D01*
%TO.C,U3*%
X149990000Y-76800000D02*
X149990000Y-78300000D01*
X153210000Y-76800000D02*
X153210000Y-73875000D01*
X153210000Y-76800000D02*
X153210000Y-78300000D01*
X149990000Y-76800000D02*
X149990000Y-75300000D01*
%TO.C,C6*%
X80661252Y-49765000D02*
X80138748Y-49765000D01*
X80661252Y-51235000D02*
X80138748Y-51235000D01*
%TO.C,U6*%
X97900000Y-87210000D02*
X99400000Y-87210000D01*
X97900000Y-87210000D02*
X96400000Y-87210000D01*
X97900000Y-83990000D02*
X99400000Y-83990000D01*
X97900000Y-83990000D02*
X94975000Y-83990000D01*
%TO.C,SW3*%
X167770000Y-99860000D02*
X165050000Y-99860000D01*
X172770000Y-99860000D02*
X169630000Y-99860000D01*
X177350000Y-99860000D02*
X174630000Y-99860000D01*
X177350000Y-87560000D02*
X177350000Y-99860000D01*
X165050000Y-99860000D02*
X165050000Y-87560000D01*
X169630000Y-87560000D02*
X172770000Y-87560000D01*
X165050000Y-87560000D02*
X167770000Y-87560000D01*
X174630000Y-87560000D02*
X177350000Y-87560000D01*
X175739050Y-93810000D02*
G75*
G03*
X175739050Y-93810000I-4579050J0D01*
G01*
%TO.C,SW2*%
X177350000Y-81960000D02*
X174630000Y-81960000D01*
X172770000Y-81960000D02*
X169630000Y-81960000D01*
X167770000Y-81960000D02*
X165050000Y-81960000D01*
X165050000Y-69660000D02*
X167770000Y-69660000D01*
X169630000Y-69660000D02*
X172770000Y-69660000D01*
X174630000Y-69660000D02*
X177350000Y-69660000D01*
X177350000Y-69660000D02*
X177350000Y-81960000D01*
X165050000Y-81960000D02*
X165050000Y-69660000D01*
X175739050Y-75910000D02*
G75*
G03*
X175739050Y-75910000I-4579050J0D01*
G01*
%TO.C,U2*%
X79750000Y-54100000D02*
X81050000Y-54100000D01*
X81300000Y-55900000D02*
X79750000Y-55900000D01*
%TO.C,R9*%
X162127064Y-88235000D02*
X161672936Y-88235000D01*
X162127064Y-86765000D02*
X161672936Y-86765000D01*
%TO.C,C5*%
X96135000Y-55261252D02*
X96135000Y-54738748D01*
X94665000Y-55261252D02*
X94665000Y-54738748D01*
%TO.C,L1*%
X78400000Y-66300000D02*
X78400000Y-60100000D01*
X78400000Y-66300000D02*
X78850000Y-66300000D01*
X84600000Y-60100000D02*
X84600000Y-66300000D01*
X84600000Y-60100000D02*
X84150000Y-60100000D01*
X84600000Y-66300000D02*
X84150000Y-66300000D01*
X78400000Y-60100000D02*
X78850000Y-60100000D01*
%TO.C,R19*%
X147565000Y-85627064D02*
X147565000Y-85172936D01*
X149035000Y-85627064D02*
X149035000Y-85172936D01*
%TO.C,C7*%
X79054437Y-80990000D02*
X77990000Y-82054437D01*
X83641250Y-80356250D02*
X82853750Y-80356250D01*
X83745563Y-80990000D02*
X82460000Y-80990000D01*
X77990000Y-87810000D02*
X80340000Y-87810000D01*
X77990000Y-82054437D02*
X77990000Y-87810000D01*
X79054437Y-80990000D02*
X80340000Y-80990000D01*
X84810000Y-87810000D02*
X82460000Y-87810000D01*
X83247500Y-79962500D02*
X83247500Y-80750000D01*
X83745563Y-80990000D02*
X84810000Y-82054437D01*
X84810000Y-82054437D02*
X84810000Y-87810000D01*
%TO.C,R6*%
X161272936Y-81265000D02*
X161727064Y-81265000D01*
X161272936Y-82735000D02*
X161727064Y-82735000D01*
%TO.C,C20*%
X82738748Y-91565000D02*
X83261252Y-91565000D01*
X82738748Y-93035000D02*
X83261252Y-93035000D01*
%TO.C,U7*%
X122080000Y-67120000D02*
X123080000Y-67120000D01*
X140320000Y-67120000D02*
X139320000Y-67120000D01*
X140320000Y-92865000D02*
X122080000Y-92865000D01*
X140320000Y-86445000D02*
X140700000Y-86445000D01*
X140320000Y-92865000D02*
X140320000Y-86445000D01*
X122080000Y-92865000D02*
X122080000Y-86445000D01*
X122080000Y-67900000D02*
X122080000Y-67120000D01*
X140320000Y-67900000D02*
X140320000Y-67120000D01*
%TO.C,+3.3*%
X69150000Y-45650000D02*
X69150000Y-43750000D01*
X71050000Y-45650000D02*
X69150000Y-45650000D01*
X69150000Y-43750000D02*
X71050000Y-43750000D01*
X71050000Y-43750000D02*
X71050000Y-45650000D01*
%TO.C,R18*%
X144727064Y-79165000D02*
X144272936Y-79165000D01*
X144727064Y-80635000D02*
X144272936Y-80635000D01*
%TO.C,C14*%
X112161252Y-63935000D02*
X111638748Y-63935000D01*
X112161252Y-62465000D02*
X111638748Y-62465000D01*
%TO.C,C11*%
X157935000Y-59138748D02*
X157935000Y-59661252D01*
X156465000Y-59138748D02*
X156465000Y-59661252D01*
%TO.C,J4*%
X65940000Y-77400000D02*
X65940000Y-76340000D01*
X68060000Y-78400000D02*
X68060000Y-82460000D01*
X65940000Y-82460000D02*
X68060000Y-82460000D01*
X65940000Y-76340000D02*
X67000000Y-76340000D01*
X65940000Y-78400000D02*
X68060000Y-78400000D01*
X65940000Y-78400000D02*
X65940000Y-82460000D01*
%TO.C,R21*%
X150065000Y-68927064D02*
X150065000Y-68472936D01*
X151535000Y-68927064D02*
X151535000Y-68472936D01*
%TO.C,C21*%
X144435000Y-83638748D02*
X144435000Y-84161252D01*
X142965000Y-83638748D02*
X142965000Y-84161252D01*
%TO.C,R11*%
X113635000Y-58672936D02*
X113635000Y-59127064D01*
X112165000Y-58672936D02*
X112165000Y-59127064D01*
%TO.C,C8*%
X87053733Y-67910000D02*
X87346267Y-67910000D01*
X87053733Y-66890000D02*
X87346267Y-66890000D01*
%TO.C,C13*%
X158135000Y-94438748D02*
X158135000Y-94961252D01*
X156665000Y-94438748D02*
X156665000Y-94961252D01*
%TO.C,J6*%
X68360000Y-97500000D02*
X68360000Y-101460000D01*
X66690000Y-97500000D02*
X68360000Y-97500000D01*
X65690000Y-101575000D02*
X65690000Y-97385000D01*
X75920000Y-95480000D02*
X75920000Y-103480000D01*
X75320000Y-100660000D02*
X75320000Y-102260000D01*
X75920000Y-96700000D02*
X75320000Y-96700000D01*
X66695000Y-101575000D02*
X65690000Y-101575000D01*
X65690000Y-97500000D02*
X66690000Y-97500000D01*
X68360000Y-101460000D02*
X66690000Y-101460000D01*
X75920000Y-103480000D02*
X66695000Y-103480000D01*
X75320000Y-102260000D02*
X75920000Y-102260000D01*
X66695000Y-97385000D02*
X66695000Y-95480000D01*
X66690000Y-101460000D02*
X65690000Y-101460000D01*
X72700000Y-95190000D02*
X68700000Y-95190000D01*
X75320000Y-96700000D02*
X75320000Y-98300000D01*
X66695000Y-103480000D02*
X66695000Y-101575000D01*
X66690000Y-97500000D02*
X66690000Y-101460000D01*
X75320000Y-98300000D02*
X75920000Y-98300000D01*
X75920000Y-100660000D02*
X75320000Y-100660000D01*
X66695000Y-95480000D02*
X75920000Y-95480000D01*
X65690000Y-97385000D02*
X66695000Y-97385000D01*
%TO.C,R16*%
X91027064Y-102965000D02*
X90572936Y-102965000D01*
X91027064Y-104435000D02*
X90572936Y-104435000D01*
%TO.C,R15*%
X102735000Y-95672936D02*
X102735000Y-96127064D01*
X101265000Y-95672936D02*
X101265000Y-96127064D01*
%TO.C,GND*%
X76050000Y-45650000D02*
X76050000Y-43750000D01*
X76050000Y-43750000D02*
X77950000Y-43750000D01*
X77950000Y-45650000D02*
X76050000Y-45650000D01*
X77950000Y-43750000D02*
X77950000Y-45650000D01*
%TO.C,Q1*%
X113010000Y-71300000D02*
X113010000Y-67700000D01*
X112998478Y-67661522D02*
G75*
G03*
X108560000Y-69500000I-1838478J-1838478D01*
G01*
X108559999Y-69500000D02*
G75*
G03*
X112998478Y-71338478I2600001J0D01*
G01*
%TO.C,Q2*%
X93650000Y-97170000D02*
X93650000Y-100770000D01*
X98100001Y-98970000D02*
G75*
G03*
X93661522Y-97131522I-2600001J0D01*
G01*
X93661522Y-100808478D02*
G75*
G03*
X98100000Y-98970000I1838478J1838478D01*
G01*
%TO.C,U4*%
X96540000Y-75700000D02*
X96540000Y-77650000D01*
X106660000Y-75700000D02*
X106660000Y-72200000D01*
X106660000Y-75700000D02*
X106660000Y-77650000D01*
X96540000Y-75700000D02*
X96540000Y-73750000D01*
%TO.C,R5*%
X161372936Y-65035000D02*
X161827064Y-65035000D01*
X161372936Y-63565000D02*
X161827064Y-63565000D01*
%TO.C,R14*%
X106935000Y-54672936D02*
X106935000Y-55127064D01*
X105465000Y-54672936D02*
X105465000Y-55127064D01*
%TD*%
M02*
